<svg width="89" height="35" viewBox="0 0 89 35" fill="none" xmlns="http://www.w3.org/2000/svg">
<circle cx="1.93625" cy="1.93625" r="1.93625" fill="#FB3466" fill-opacity="0.2"/>
<circle cx="34.2077" cy="1.93625" r="1.93625" fill="#FB3466" fill-opacity="0.2"/>
<circle cx="65.4792" cy="1.93625" r="1.93625" fill="#FB3466" fill-opacity="0.2"/>
<circle cx="12.6941" cy="1.93625" r="1.93625" fill="#FB3466" fill-opacity="0.2"/>
<circle cx="44.9636" cy="1.93625" r="1.93625" fill="#FB3466" fill-opacity="0.2"/>
<circle cx="76.2351" cy="1.93625" r="1.93625" fill="#FB3466" fill-opacity="0.2"/>
<circle cx="23.4499" cy="1.93625" r="1.93625" fill="#FB3466" fill-opacity="0.2"/>
<circle cx="55.7214" cy="1.93625" r="1.93625" fill="#FB3466" fill-opacity="0.2"/>
<circle cx="86.9929" cy="1.93625" r="1.93625" fill="#FB3466" fill-opacity="0.2"/>
<circle cx="1.93625" cy="12.1623" r="1.93625" fill="#FB3466" fill-opacity="0.2"/>
<circle cx="34.2077" cy="12.1623" r="1.93625" fill="#FB3466" fill-opacity="0.2"/>
<circle cx="65.4792" cy="12.1623" r="1.93625" fill="#FB3466" fill-opacity="0.2"/>
<circle cx="12.6941" cy="12.1623" r="1.93625" fill="#FB3466" fill-opacity="0.2"/>
<circle cx="44.9636" cy="12.1623" r="1.93625" fill="#FB3466" fill-opacity="0.2"/>
<circle cx="76.2351" cy="12.1623" r="1.93625" fill="#FB3466" fill-opacity="0.2"/>
<circle cx="23.4499" cy="12.1623" r="1.93625" fill="#FB3466" fill-opacity="0.2"/>
<circle cx="55.7214" cy="12.1623" r="1.93625" fill="#FB3466" fill-opacity="0.2"/>
<circle cx="86.9929" cy="12.1623" r="1.93625" fill="#FB3466" fill-opacity="0.2"/>
<circle cx="1.93625" cy="22.3542" r="1.93625" fill="#FB3466" fill-opacity="0.2"/>
<circle cx="34.2077" cy="22.3542" r="1.93625" fill="#FB3466" fill-opacity="0.2"/>
<circle cx="65.4792" cy="22.3542" r="1.93625" fill="#FB3466" fill-opacity="0.2"/>
<circle cx="12.6941" cy="22.3542" r="1.93625" fill="#FB3466" fill-opacity="0.2"/>
<circle cx="44.9636" cy="22.3542" r="1.93625" fill="#FB3466" fill-opacity="0.2"/>
<circle cx="76.2351" cy="22.3542" r="1.93625" fill="#FB3466" fill-opacity="0.2"/>
<circle cx="23.4499" cy="22.3542" r="1.93625" fill="#FB3466" fill-opacity="0.2"/>
<circle cx="55.7214" cy="22.3542" r="1.93625" fill="#FB3466" fill-opacity="0.2"/>
<circle cx="86.9929" cy="22.3542" r="1.93625" fill="#FB3466" fill-opacity="0.2"/>
<circle cx="1.93625" cy="32.5466" r="1.93625" fill="#FB3466" fill-opacity="0.2"/>
<circle cx="34.2077" cy="32.5466" r="1.93625" fill="#FB3466" fill-opacity="0.2"/>
<circle cx="65.4792" cy="32.5466" r="1.93625" fill="#FB3466" fill-opacity="0.2"/>
<circle cx="12.6941" cy="32.5466" r="1.93625" fill="#FB3466" fill-opacity="0.2"/>
<circle cx="44.9636" cy="32.5466" r="1.93625" fill="#FB3466" fill-opacity="0.2"/>
<circle cx="76.2351" cy="32.5466" r="1.93625" fill="#FB3466" fill-opacity="0.2"/>
<circle cx="23.4499" cy="32.5466" r="1.93625" fill="#FB3466" fill-opacity="0.2"/>
<circle cx="55.7214" cy="32.5466" r="1.93625" fill="#FB3466" fill-opacity="0.2"/>
<circle cx="86.9929" cy="32.5466" r="1.93625" fill="#FB3466" fill-opacity="0.2"/>
</svg>
