<svg width="69" height="60" viewBox="0 0 69 60" fill="none" xmlns="http://www.w3.org/2000/svg">
<circle cx="1.46599" cy="9.61052" r="1.46599" fill="#FB3466"/>
<circle cx="25.8996" cy="9.61052" r="1.46599" fill="#FB3466"/>
<circle cx="50.3332" cy="9.61052" r="1.46599" fill="#FB3466"/>
<circle cx="9.61052" cy="9.61052" r="1.46599" fill="#FB3466"/>
<circle cx="34.0441" cy="9.61052" r="1.46599" fill="#FB3466"/>
<circle cx="58.4777" cy="9.61052" r="1.46599" fill="#FB3466"/>
<circle cx="17.755" cy="9.61052" r="1.46599" fill="#FB3466"/>
<circle cx="42.1886" cy="9.61052" r="1.46599" fill="#FB3466"/>
<circle cx="66.6203" cy="9.61052" r="1.46599" fill="#FB3466"/>
<circle cx="1.46599" cy="17.7546" r="1.46599" fill="#FB3466"/>
<circle cx="25.8996" cy="17.7546" r="1.46599" fill="#FB3466"/>
<circle cx="50.3332" cy="17.7546" r="1.46599" fill="#FB3466"/>
<circle cx="9.61052" cy="17.7546" r="1.46599" fill="#FB3466"/>
<circle cx="34.0441" cy="17.7546" r="1.46599" fill="#FB3466"/>
<circle cx="58.4777" cy="17.7546" r="1.46599" fill="#FB3466"/>
<circle cx="17.755" cy="17.7546" r="1.46599" fill="#FB3466"/>
<circle cx="42.1886" cy="17.7546" r="1.46599" fill="#FB3466"/>
<circle cx="66.6203" cy="17.7546" r="1.46599" fill="#FB3466"/>
<circle cx="1.46599" cy="25.8991" r="1.46599" fill="#FB3466"/>
<circle cx="25.8996" cy="25.8991" r="1.46599" fill="#FB3466"/>
<circle cx="50.3332" cy="25.8991" r="1.46599" fill="#FB3466"/>
<circle cx="9.61052" cy="25.8991" r="1.46599" fill="#FB3466"/>
<circle cx="34.0441" cy="25.8991" r="1.46599" fill="#FB3466"/>
<circle cx="58.4777" cy="25.8991" r="1.46599" fill="#FB3466"/>
<circle cx="17.755" cy="25.8991" r="1.46599" fill="#FB3466"/>
<circle cx="42.1886" cy="25.8991" r="1.46599" fill="#FB3466"/>
<circle cx="66.6203" cy="25.8991" r="1.46599" fill="#FB3466"/>
<circle cx="25.8996" cy="34.0436" r="1.46599" fill="#FB3466"/>
<circle cx="50.3332" cy="34.0436" r="1.46599" fill="#FB3466"/>
<circle cx="9.61052" cy="34.0436" r="1.46599" fill="#FB3466"/>
<circle cx="34.0441" cy="34.0436" r="1.46599" fill="#FB3466"/>
<circle cx="58.4777" cy="34.0436" r="1.46599" fill="#FB3466"/>
<circle cx="17.755" cy="34.0436" r="1.46599" fill="#FB3466"/>
<circle cx="42.1886" cy="34.0436" r="1.46599" fill="#FB3466"/>
<circle cx="25.8996" cy="42.1877" r="1.46599" fill="#FB3466"/>
<circle cx="50.3332" cy="42.1877" r="1.46599" fill="#FB3466"/>
<circle cx="34.0441" cy="42.1877" r="1.46599" fill="#FB3466"/>
<circle cx="17.755" cy="42.1877" r="1.46599" fill="#FB3466"/>
<circle cx="42.1886" cy="42.1877" r="1.46599" fill="#FB3466"/>
<circle cx="25.8996" cy="50.3322" r="1.46599" fill="#FB3466"/>
<circle cx="34.0441" cy="50.3322" r="1.46599" fill="#FB3466"/>
<circle cx="42.1886" cy="50.3322" r="1.46599" fill="#FB3466"/>
<circle cx="34.0441" cy="58.4767" r="1.46599" fill="#FB3466"/>
<circle cx="25.8996" cy="1.46599" r="1.46599" fill="#FB3466"/>
<circle cx="50.3332" cy="1.46599" r="1.46599" fill="#FB3466"/>
<circle cx="9.61052" cy="1.46599" r="1.46599" fill="#FB3466"/>
<circle cx="58.4777" cy="1.46599" r="1.46599" fill="#FB3466"/>
<circle cx="17.755" cy="1.46599" r="1.46599" fill="#FB3466"/>
<circle cx="42.1886" cy="1.46599" r="1.46599" fill="#FB3466"/>
</svg>
