<svg width="1423" height="469" viewBox="0 0 1423 469" fill="none" xmlns="http://www.w3.org/2000/svg">
<path d="M299.5 230.892C85.0999 223.292 41.8333 351.725 46.9999 416.892V467.392H1422.5C1415 466.058 1316.4 395.992 982 126.392C746.549 -63.4335 637.736 -7.10742 570.5 85.8918C463.5 233.892 416.541 235.04 299.5 230.892Z" fill="#F1F0F7"/>
<path d="M1393.9 467.392C1386.4 466.059 1287.8 395.993 953.396 126.393C717.945 -63.4327 621.236 33.3917 553.999 126.391C432.177 294.892 353.5 267.892 216.999 250.394C4.20607 223.115 13.2292 351.726 18.3958 416.892V467.392" stroke="#EFEFEF" stroke-width="2"/>
<path d="M1380 467C1372.5 465.892 1273.93 407.66 939.615 183.595C704.226 25.831 607.542 106.302 540.323 183.593C418.533 323.635 339.876 231.195 203.412 216.652C-9.32587 193.981 -0.305138 300.869 4.86018 355.029V467" stroke="white" stroke-width="4"/>
</svg>
