<svg width="58" height="60" viewBox="0 0 58 60" fill="none" xmlns="http://www.w3.org/2000/svg">
<g clip-path="url(#clip0_206_75)">
<path d="M27.2331 1.33151C27.9847 -0.0857643 30.0153 -0.0857625 30.7669 1.33151L34.5405 8.44703C35.0461 9.40033 36.2167 9.7807 37.1861 9.30662L44.4214 5.76811C45.8625 5.06331 47.5052 6.25684 47.2803 7.84523L46.1508 15.8198C45.9994 16.8882 46.7229 17.8841 47.7858 18.0703L55.7192 19.4604C57.2994 19.7373 57.9268 21.6684 56.8112 22.8212L51.21 28.6089C50.4596 29.3844 50.4596 30.6152 51.21 31.3907L56.8112 37.1784C57.9268 38.3312 57.2993 40.2623 55.7192 40.5392L47.7858 41.9293C46.7229 42.1155 45.9994 43.1113 46.1508 44.1798L47.2803 52.1544C47.5052 53.7428 45.8625 54.9363 44.4214 54.2315L37.1861 50.693C36.2167 50.2189 35.0461 50.5993 34.5405 51.5526L30.7669 58.6681C30.0153 60.0854 27.9847 60.0854 27.2331 58.6681L23.4595 51.5526C22.9539 50.5993 21.7833 50.2189 20.8139 50.693L13.5786 54.2315C12.1375 54.9363 10.4948 53.7428 10.7197 52.1544L11.8492 44.1798C12.0006 43.1113 11.2771 42.1155 10.2142 41.9293L2.28078 40.5392C0.700605 40.2623 0.0731317 38.3312 1.18878 37.1784L6.78993 31.3907C7.54035 30.6152 7.54035 29.3844 6.78993 28.6089L1.18877 22.8212C0.0731302 21.6684 0.700607 19.7373 2.28078 19.4604L10.2142 18.0703C11.2771 17.8841 12.0006 16.8882 11.8492 15.8198L10.7197 7.84523C10.4948 6.25684 12.1375 5.06331 13.5786 5.76811L20.8139 9.30663C21.7833 9.7807 22.9539 9.40033 23.4595 8.44703L27.2331 1.33151Z" fill="#9DCF62"/>
<path d="M21 30.5L26 35.5L38 24" stroke="white" stroke-width="4"/>
</g>
<defs>
<clipPath id="clip0_206_75">
<rect width="58" height="60" fill="white"/>
</clipPath>
</defs>
</svg>
