<svg width="16" height="16" viewBox="0 0 16 16" fill="none" xmlns="http://www.w3.org/2000/svg">
<g clip-path="url(#clip0_291_182)">
<path fill-rule="evenodd" clip-rule="evenodd" d="M8 0C3.58172 0 0 3.58172 0 8C0 12.4182 3.58172 16 8 16C12.4182 16 16 12.4182 16 8C16 3.58172 12.4182 0 8 0ZM7.2 12C7.2 11.5582 7.55816 11.2 8 11.2H8.008C8.44984 11.2 8.808 11.5582 8.808 12C8.808 12.4418 8.44984 12.8 8.008 12.8H8C7.55816 12.8 7.2 12.4418 7.2 12ZM6.35897 5.85298C6.50248 5.42246 6.72408 5.18247 6.96776 5.03717C7.2272 4.88254 7.57296 4.8 8 4.8C8.88368 4.8 9.6 5.51634 9.6 6.4C9.6 6.56216 9.5544 6.62736 9.4844 6.69152C9.37448 6.79232 9.19632 6.88488 8.89232 7.01152C8.85864 7.0256 8.82184 7.04056 8.78264 7.05656C8.53488 7.15752 8.19072 7.29776 7.91872 7.48664C7.55008 7.74264 7.2 8.16128 7.2 8.8C7.2 9.24184 7.55824 9.6 8 9.6C8.4336 9.6 8.78664 9.25512 8.79968 8.82472C8.80728 8.8184 8.8176 8.8104 8.83136 8.80088C8.94688 8.72056 9.10152 8.65664 9.36536 8.54752L9.36616 8.54712C9.41024 8.52896 9.45728 8.50944 9.50768 8.48848C9.80376 8.36512 10.2256 8.18264 10.5656 7.87096C10.9456 7.52264 11.2 7.03784 11.2 6.4C11.2 4.63269 9.76736 3.2 8 3.2C7.38216 3.2 6.72792 3.31746 6.14853 3.66283C5.55351 4.01753 5.09757 4.57754 4.84107 5.34702C4.70136 5.76618 4.92789 6.21923 5.34704 6.35894C5.76619 6.49864 6.21925 6.27214 6.35897 5.85298Z" fill="#B3B3B3"/>
</g>
<defs>
<clipPath id="clip0_291_182">
<rect width="16" height="16" fill="white"/>
</clipPath>
</defs>
</svg>
