<?xml version="1.0" encoding="UTF-8"?>
<svg width="162px" height="48px" viewBox="0 0 162 48" version="1.1" xmlns="http://www.w3.org/2000/svg" xmlns:xlink="http://www.w3.org/1999/xlink">
    <!-- Generator: Sketch 62 (91390) - https://sketch.com -->
    <title>download-on-the-app-store-apple</title>
    <desc>Created with Sketch.</desc>
    <defs>
        <linearGradient x1="49.9984472%" y1="100.265508%" x2="49.9984472%" y2="-260.382794%" id="linearGradient-1">
            <stop stop-color="#1A1A1A" stop-opacity="0.1" offset="0%"></stop>
            <stop stop-color="#212121" stop-opacity="0.151" offset="12.3%"></stop>
            <stop stop-color="#353535" stop-opacity="0.227" offset="30.8%"></stop>
            <stop stop-color="#575757" stop-opacity="0.318" offset="53.2%"></stop>
            <stop stop-color="#858585" stop-opacity="0.421" offset="78.3%"></stop>
            <stop stop-color="#B3B3B3" stop-opacity="0.51" offset="100%"></stop>
        </linearGradient>
    </defs>
    <g id="Membership" stroke="none" stroke-width="1" fill="none" fill-rule="evenodd">
        <g id="Membership-Page-#4" transform="translate(-975.000000, -4733.000000)" fill-rule="nonzero">
            <g id="Group-7" transform="translate(362.000000, 4485.000000)">
                <g id="Group-34" transform="translate(613.000000, 248.000000)">
                    <g id="download-on-the-app-store-apple">
                        <path d="M160.925253,42.3332384 C160.925253,43.553341 160.440113,44.7234012 159.576691,45.5856936 C158.713269,46.447986 157.542393,46.9317766 156.321968,46.9305049 L5.67786439,46.9305049 C3.13534525,46.9331557 1.07189022,44.8750834 1.06857672,42.3332384 L1.06857672,5.67155925 C1.07188847,3.12874393 3.13437334,1.06895374 5.67786439,1.0682937 L156.320768,1.0682937 C157.541843,1.0682937 158.712888,1.55331748 159.576206,2.41663175 C160.439524,3.27994602 160.925253,4.45080771 160.925253,5.67155925 L160.925253,42.3332384 Z" id="Path" fill="#FFFFFF"></path>
                        <path d="M156.321968,48 L5.67786439,48 C2.54608718,47.9993401 0.00595891545,45.4641806 0,42.3332384 L0,5.67275958 C0.00463295944,2.54029582 2.54456844,0.00264391751 5.67786439,0 L156.320768,0 C159.453517,0.00396299134 161.99268,2.5408436 161.998634,5.67275958 L161.998634,42.3332384 C162.001033,45.4588978 159.449656,48 156.321968,48 L156.321968,48 Z" id="Path" fill="#A6A6A6"></path>
                        <path d="M160.925253,42.3332384 C160.925253,43.553341 160.440113,44.7234012 159.576691,45.5856936 C158.713269,46.447986 157.542393,46.9317766 156.321968,46.9305049 L5.67786439,46.9305049 C3.13534525,46.9331557 1.07189022,44.8750834 1.06857672,42.3332384 L1.06857672,5.67155925 C1.07188847,3.12874393 3.13437334,1.06895374 5.67786439,1.0682937 L156.320768,1.0682937 C157.541843,1.0682937 158.712888,1.55331748 159.576206,2.41663175 C160.439524,3.27994602 160.925253,4.45080771 160.925253,5.67155925 L160.925253,42.3332384 Z" id="Path" fill="#000000"></path>
                        <path d="M36.1731229,23.7473287 C36.1383042,19.8786651 39.341633,17.9965477 39.4881121,17.9089236 C37.6739329,15.2645966 34.8620153,14.9032973 33.873882,14.8744894 C31.5122074,14.626021 29.221371,16.2872778 28.0183217,16.2872778 C26.7912595,16.2872778 24.9386596,14.898496 22.941982,14.9393072 C20.3725953,14.9789181 17.968898,16.4661269 16.6505865,18.7755619 C13.9299181,23.4844564 15.9590132,30.4043589 18.56562,34.2106053 C19.8695238,36.0759181 21.3931461,38.15609 23.3874224,38.0828699 C25.3384754,38.0036481 26.0672687,36.8405284 28.4217395,36.8405284 C30.7545985,36.8405284 31.4389679,38.0828699 33.4728656,38.036057 C35.5667957,38.0036481 36.8851072,36.1635422 38.1433863,34.2826251 C39.6501996,32.1472381 40.2553261,30.0418592 40.2793391,29.9338295 C40.2313132,29.9170249 36.213945,28.3830032 36.1731229,23.7473287 Z M32.3310493,12.370601 C33.3804157,11.0586403 34.0984032,9.27374958 33.8990956,7.46245161 C32.3802759,7.52967009 30.4808508,8.51274036 29.3870604,9.79589313 C28.4193382,10.926604 27.5548716,12.7799135 27.7781921,14.5227927 C29.4843129,14.6500276 31.2360584,13.6621561 32.3310493,12.370601 L32.3310493,12.370601 Z" id="Shape" fill="#FFFFFF"></path>
                        <path d="M156.321968,0 L75.6324195,0 L107.237077,48 L156.321968,48 C159.454329,47.9973555 161.993877,45.4611635 161.999833,42.3296375 L161.999833,5.67275958 C161.99454,2.54056978 159.454991,0.0033037205 156.321968,0 Z" id="Path" fill="url(#linearGradient-1)"></path>
                        <g id="Group" transform="translate(50.427216, 21.605940)" fill="#FFFFFF">
                            <path d="M14.0055589,16.2092563 L11.2788873,16.2092563 L9.7852812,11.5171664 L4.59367925,11.5171664 L3.17091137,16.2092563 L0.51627864,16.2092563 L5.66105532,0.23526468 L8.83796993,0.23526468 L14.0055589,16.2092563 L14.0055589,16.2092563 Z M9.3350382,9.54862515 L7.9843092,5.3774784 C7.84143209,4.95136125 7.57248694,3.94788537 7.17867439,2.36825109 L7.13064847,2.36825109 C6.97216294,3.04763787 6.71882621,4.05111375 6.37183894,5.3774784 L5.04392225,9.54862515 L9.3350382,9.54862515 Z M27.2102856,10.308434 C27.2102856,12.2673726 26.6783986,13.8157983 25.6134238,14.9525108 C24.6601093,15.964389 23.4750697,16.4697279 22.061907,16.4697279 C20.5358834,16.4697279 19.4384911,15.9259784 18.7721315,14.8360788 L18.7721315,20.8797403 L16.2123499,20.8797403 L16.2123499,8.47673046 C16.2123499,7.24639221 16.1799324,5.98484538 16.1174988,4.69088964 L18.3687138,4.69088964 L18.5115909,6.51659157 L18.5596168,6.51659157 C19.4132775,5.14101339 20.7087767,4.4532243 22.447315,4.4532243 C23.8064485,4.4532243 24.9410609,4.98977181 25.8487508,6.06406716 C26.75524,7.14076317 27.2102856,8.55475191 27.2102856,10.308434 Z M24.6024782,10.4020598 C24.6024782,9.28095156 24.3503421,8.35669746 23.8436686,7.62809715 C23.2901699,6.87068892 22.5469688,6.49138464 21.6152659,6.49138464 C20.9837251,6.49138464 20.4098154,6.70264272 19.8971387,7.11915723 C19.3832613,7.53927273 19.0470799,8.08782354 18.889795,8.76721032 C18.8195798,9.02128613 18.7796811,9.28277517 18.7709308,9.54622449 L18.7709308,11.4679528 C18.7709308,12.3045828 19.0278695,13.0115772 19.5417468,13.5901363 C20.0556242,14.1662947 20.7231845,14.4555742 21.5444277,14.4555742 C22.5085481,14.4555742 23.2589531,14.0822716 23.7956427,13.3416679 C24.333533,12.5986637 24.6024782,11.6191944 24.6024782,10.4020598 L24.6024782,10.4020598 Z M40.4618376,10.308434 C40.4618376,12.2673726 39.9299505,13.8157983 38.8649758,14.9525108 C37.9104606,15.964389 36.7266217,16.4697279 35.3122583,16.4697279 C33.7862347,16.4697279 32.6888424,15.9259784 32.0224828,14.8360788 L32.0224828,20.8797403 L29.4627013,20.8797403 L29.4627013,8.47673046 C29.4627013,7.24639221 29.4302838,5.98484538 29.3678501,4.69088964 L31.6190651,4.69088964 L31.7619422,6.51659157 L31.8099681,6.51659157 C32.6624282,5.14101339 33.9579274,4.4532243 35.6976663,4.4532243 C37.0555992,4.4532243 38.1902116,4.98977181 39.1003028,6.06406716 C40.0055914,7.14076317 40.4618376,8.55475191 40.4618376,10.308434 L40.4618376,10.308434 Z M37.8528295,10.4020598 C37.8528295,9.28095156 37.5994928,8.35669746 37.0928193,7.62809715 C36.5393206,6.87068892 35.7985208,6.49138464 34.8668179,6.49138464 C34.2352771,6.49138464 33.6613673,6.70264272 33.1462893,7.11915723 C32.632412,7.53927273 32.2974312,8.08782354 32.1401463,8.76721032 C32.0621042,9.08409744 32.0200815,9.34216839 32.0200815,9.54622449 L32.0200815,11.4679528 C32.0200815,12.3045828 32.2782208,13.0115772 32.7896969,13.5901363 C33.3035742,14.1650943 33.9711345,14.4555742 34.794779,14.4555742 C35.7601,14.4555742 36.510505,14.0822716 37.045994,13.3416679 C37.5838843,12.5986637 37.8528295,11.6191944 37.8528295,10.4020598 L37.8528295,10.4020598 Z M55.2778339,11.7284244 C55.2778339,13.0883983 54.8023773,14.1939022 53.8574673,15.0473369 C52.8177062,15.978793 51.3661227,16.4457213 49.5051183,16.4457213 C47.7857904,16.4457213 46.4074465,16.1144302 45.3676853,15.4506478 L45.9596048,13.3176613 C47.0822107,13.9826442 48.3152762,14.3139352 49.6576006,14.3139352 C50.6229216,14.3139352 51.3733266,14.0954752 51.9088156,13.6621561 C52.4455053,13.2276366 52.7168517,12.6466769 52.7168517,11.9216776 C52.7168517,11.272299 52.4923306,10.7285495 52.0516927,10.2856278 C51.6086536,9.84390633 50.8762584,9.43219314 49.847303,9.05408919 C47.0497932,8.01100242 45.6498376,6.48538299 45.6498376,4.47843123 C45.6498376,3.16767087 46.1445046,2.09457585 47.1314372,1.25554518 C48.1183699,0.41771484 49.4270762,-0.00120033 51.0551549,-0.00120033 C52.5091396,-0.00120033 53.7205935,0.2520693 54.6823125,0.75740823 L54.0399658,2.84358177 C53.1346772,2.35384713 52.1129258,2.10897981 50.9699089,2.10897981 C50.0670216,2.10897981 49.3586393,2.33104086 48.8519658,2.7727623 C48.4257358,3.16767087 48.2096191,3.6490032 48.2096191,4.22036028 C48.2096191,4.85053353 48.455752,5.37387741 48.9456164,5.78439027 C49.3706458,6.16249422 50.1462644,6.57420741 51.2676696,7.01592885 C52.6436122,7.57048131 53.6545578,8.21625885 54.3017071,8.95806279 C54.953659,9.69986673 55.2778339,10.6253212 55.2778339,11.7284244 Z M63.7628133,6.61141764 L60.9412905,6.61141764 L60.9412905,12.2037551 C60.9412905,13.6261462 61.4383588,14.3355412 62.4348966,14.3355412 C62.8923435,14.3355412 63.2717483,14.2971306 63.5719103,14.2167085 L63.6427485,16.1600428 C63.1384764,16.3484946 62.474518,16.4433207 61.6520742,16.4433207 C60.6411285,16.4433207 59.8511022,16.1348359 59.2807944,15.5178662 C58.7128878,14.9008966 58.4271336,13.8674125 58.4271336,12.4126125 L58.4271336,6.60661632 L56.7462264,6.60661632 L56.7462264,4.68608832 L58.4271336,4.68608832 L58.4271336,2.57710851 L60.9412905,1.81849995 L60.9412905,4.68608832 L63.7628133,4.68608832 L63.7628133,6.61141764 L63.7628133,6.61141764 Z M76.4680705,10.3552469 C76.4680705,12.1257337 75.961397,13.5793333 74.9504514,14.7160458 C73.8926805,15.8863675 72.4855211,16.4697279 70.7313743,16.4697279 C69.0384606,16.4697279 67.6925342,15.9091738 66.6887925,14.7892659 C65.6850508,13.6669574 65.1831799,12.2529686 65.1831799,10.5472997 C65.1831799,8.762409 65.7018599,7.30040706 66.7356178,6.16369455 C67.771777,5.02578171 69.16693,4.45682529 70.9210767,4.45682529 C72.6115891,4.45682529 73.969522,5.01857973 74.9972767,6.13968795 C75.9794067,7.22718693 76.4680705,8.63157303 76.4680705,10.3552469 Z M73.8146384,10.4140631 C73.8146384,9.35897301 73.5865153,8.45392419 73.1290684,7.69651596 C72.5923787,6.7818645 71.823964,6.32453877 70.8286268,6.32453877 C69.8032734,6.32453877 69.016849,6.7818645 68.48136,7.69651596 C68.0227124,8.45392419 67.7945893,9.3745773 67.7945893,10.4620763 C67.7945893,11.5183667 68.0227124,12.4258162 68.48136,13.1808237 C69.0348587,14.0954752 69.8068754,14.5528009 70.8070152,14.5528009 C71.7855433,14.5528009 72.5527573,14.0858725 73.1074567,13.1580175 C73.5781107,12.3826043 73.8146384,11.4715538 73.8146384,10.4140631 Z M84.7921631,6.94150839 C84.5259271,6.89345564 84.2558659,6.86975119 83.9853276,6.87068892 C83.0848416,6.87068892 82.3884658,7.20918198 81.8986014,7.89096942 C81.473572,8.49113442 81.2598566,9.24974298 81.2598566,10.1655948 L81.2598566,16.2092563 L78.7000751,16.2092563 L78.7000751,8.3182869 C78.7023579,7.10915044 78.6775383,5.90011466 78.6256349,4.69208997 L80.8552383,4.69208997 L80.9488888,6.89589585 L81.019727,6.89589585 C81.2910735,6.13848762 81.7161029,5.52751965 82.2996178,5.07019392 C82.8337301,4.67057732 83.4826933,4.4541732 84.1498164,4.4532243 C84.386344,4.4532243 84.6000594,4.47002892 84.7897618,4.50003717 L84.7921631,6.94150839 L84.7921631,6.94150839 Z M96.2403417,9.90512316 C96.2468328,10.2941497 96.2154683,10.6828854 96.1466912,11.0658423 L88.4673466,11.0658423 C88.4961621,12.2037551 88.868363,13.0751947 89.5815479,13.6753597 C90.2286972,14.2107069 91.0655489,14.4795808 92.0933035,14.4795808 C93.2303172,14.4795808 94.2676771,14.2995313 95.2005806,13.9358313 L95.601597,15.7111194 C94.5114086,16.1864501 93.224314,16.4229151 91.7391124,16.4229151 C89.9525482,16.4229151 88.5501913,15.8971705 87.5296405,14.8480821 C86.511491,13.7977934 86.0012156,12.3862053 86.0012156,10.6181192 C86.0012156,8.882442 86.4754716,7.43604435 87.4251841,6.28252722 C88.4193207,5.05098864 89.7628458,4.43521935 91.4533582,4.43521935 C93.1138543,4.43521935 94.3709328,5.05098864 95.2245935,6.28252722 C95.9005584,7.25839551 96.2403417,8.46832815 96.2403417,9.90512316 L96.2403417,9.90512316 Z M93.7994244,9.24134067 C93.8174341,8.48153178 93.6493434,7.82735193 93.3023561,7.2739998 C92.859317,6.56100378 92.1773489,6.2057061 91.2636558,6.2057061 C90.4268041,6.2057061 89.7448361,6.55260147 89.2261561,7.24879287 C88.7999261,7.802145 88.5465894,8.46712782 88.4685472,9.23894001 L93.7994244,9.24134067 Z" id="Shape"></path>
                        </g>
                        <g id="Group" transform="translate(51.627864, 7.201980)" fill="#FFFFFF">
                            <path d="M2.65463273,8.99167203 C1.94264846,8.99167203 1.32671604,8.95686246 0.814039344,8.89804629 L0.814039344,1.17512307 C1.53107665,1.06438678 2.25566972,1.00980586 2.98120898,1.01182133 C5.91679334,1.01182133 7.26872299,2.45587518 7.26872299,4.80972231 C7.26872299,7.52486877 5.67186115,8.99167203 2.65463273,8.99167203 Z M3.08446471,2.00215044 C2.68825087,2.00215044 2.35086878,2.02615704 2.0711178,2.08377288 L2.0711178,7.95458691 C2.22239945,7.97859351 2.51295626,7.98939648 2.92117658,7.98939648 C4.84461468,7.98939648 5.93960566,6.89469552 5.93960566,4.84453188 C5.93960566,3.01642929 4.94907106,2.00215044 3.08446471,2.00215044 L3.08446471,2.00215044 Z M11.4817968,9.0504882 C9.82730388,9.0504882 8.75512522,7.81534863 8.75512522,6.13848762 C8.75512522,4.39080714 9.85011619,3.1448646 11.5754474,3.1448646 C13.2059274,3.1448646 14.302119,4.321188 14.302119,6.04606221 C14.302119,7.81534863 13.1723092,9.0504882 11.4817968,9.0504882 Z M11.5298227,4.06431738 C10.6209322,4.06431738 10.0386179,4.91415102 10.0386179,6.10247772 C10.0386179,7.26799815 10.6329387,8.11783179 11.5178163,8.11783179 C12.4026938,8.11783179 12.9970146,7.20918198 12.9970146,6.07847112 C12.9970146,4.92615432 12.4147003,4.06431738 11.5298227,4.06431738 Z M23.736811,3.26129661 L21.9658552,8.92205289 L20.8120324,8.92205289 L20.0784365,6.46377705 C19.8960327,5.86246627 19.7441569,5.25231982 19.6233909,4.63567446 L19.599378,4.63567446 C19.5069281,5.25264408 19.3316334,5.87081403 19.145533,6.46377705 L18.3651118,8.92205289 L17.1992826,8.92205289 L15.5327832,3.26129661 L16.8258811,3.26129661 L17.4670271,5.95243647 C17.6183088,6.59341269 17.7455774,7.19837901 17.8512345,7.76973609 L17.8752474,7.76973609 C17.9676973,7.29320508 18.118979,6.6978414 18.3410988,5.96443977 L19.145533,3.26249694 L20.1708864,3.26249694 L20.9405018,5.90682393 C21.1266022,6.54780015 21.2778839,7.17677307 21.3955474,7.77093642 L21.4291655,7.77093642 C21.5108096,7.18877637 21.6392789,6.57060642 21.8133729,5.90682393 L22.5013442,3.26249694 L23.736811,3.26129661 L23.736811,3.26129661 Z M30.2563296,8.92205289 L28.9980505,8.92205289 L28.9980505,5.67155925 C28.9980505,4.67048403 28.6138431,4.16874609 27.8562342,4.16874609 C27.1106318,4.16874609 26.5979551,4.80972231 26.5979551,5.55512724 L26.5979551,8.92205289 L25.339676,8.92205289 L25.339676,4.87934145 C25.339676,4.37880384 25.3276696,3.84225633 25.2928508,3.26009628 L26.3998482,3.26009628 L26.45868,4.13393652 L26.4934988,4.13393652 C26.8320815,3.5289702 27.5188522,3.1448646 28.2884675,3.1448646 C29.477109,3.1448646 30.2575302,4.05351441 30.2575302,5.53232097 L30.2563296,8.92205289 L30.2563296,8.92205289 Z M33.7262023,8.92205289 L32.4667226,8.92205289 L32.4667226,0.66378249 L33.7262023,0.66378249 L33.7262023,8.92205289 Z M38.3138783,9.0504882 C36.660586,9.0504882 35.5872067,7.81534863 35.5872067,6.13848762 C35.5872067,4.39080714 36.6821977,3.1448646 38.4063282,3.1448646 C40.0380089,3.1448646 41.1330008,4.321188 41.1330008,6.04606221 C41.1342005,7.81534863 40.0031901,9.0504882 38.3138783,9.0504882 Z M38.3607036,4.06431738 C37.4518131,4.06431738 36.8694988,4.91415102 36.8694988,6.10247772 C36.8694988,7.26799815 37.4650202,8.11783179 38.3474965,8.11783179 C39.2335747,8.11783179 39.8266967,7.20918198 39.8266967,6.07847112 C39.8278955,4.92615432 39.2467818,4.06431738 38.3607036,4.06431738 L38.3607036,4.06431738 Z M46.0940774,8.92205289 L46.0028281,8.2702737 L45.96921,8.2702737 C45.5850026,8.79481791 45.0243,9.0504882 44.3135164,9.0504882 C43.2989688,9.0504882 42.57858,8.33989284 42.57858,7.38443016 C42.57858,5.98724604 43.7900339,5.26464738 45.8875659,5.26464738 L45.8875659,5.16021867 C45.8875659,4.41481374 45.4925527,4.04151111 44.7121315,4.04151111 C44.1538302,4.04151111 43.6639658,4.18194972 43.2329332,4.46162661 L42.9771952,3.63459924 C43.5006777,3.30810948 44.1538302,3.1448646 44.9210443,3.1448646 C46.4002426,3.1448646 47.1470457,3.9250791 47.1470457,5.48670843 L47.1470457,7.57168164 C47.1470457,8.14303872 47.1722593,8.58596049 47.2286897,8.92325322 L46.0940774,8.92205289 L46.0940774,8.92205289 Z M45.9211841,6.10247772 C44.5236298,6.10247772 43.8224514,6.44097078 43.8224514,7.24399155 C43.8224514,7.8381549 44.1838464,8.12863476 44.6857173,8.12863476 C45.3256626,8.12863476 45.9211841,7.64010045 45.9211841,6.97631796 L45.9211841,6.10247772 L45.9211841,6.10247772 Z M53.2571433,8.92205289 L53.1983116,8.01340308 L53.1634928,8.01340308 C52.8020977,8.69999184 52.1945699,9.0504882 51.3457117,9.0504882 C49.9805749,9.0504882 48.9696293,7.8501582 48.9696293,6.16129389 C48.9696293,4.39080714 50.017795,3.14366427 51.4489674,3.14366427 C52.2065763,3.14366427 52.743266,3.39933456 53.0458293,3.9130758 L53.0710429,3.9130758 L53.0710429,0.66378249 L54.3305226,0.66378249 L54.3305226,7.39643346 C54.3305226,7.94378394 54.3437298,8.45632485 54.3773479,8.92205289 L53.2571433,8.92205289 Z M53.0710429,5.59113714 C53.0710429,4.79891934 52.5463597,4.12313355 51.7455275,4.12313355 C50.812624,4.12313355 50.2423162,4.95016092 50.2423162,6.11448102 C50.2423162,7.25599485 50.8342357,8.03740968 51.7203139,8.03740968 C52.5115409,8.03740968 53.0710429,7.34962059 53.0710429,6.53459652 L53.0710429,5.59113714 Z M62.3160325,9.0504882 C60.6627402,9.0504882 59.5905615,7.81534863 59.5905615,6.13848762 C59.5905615,4.39080714 60.6855525,3.1448646 62.409683,3.1448646 C64.0413637,3.1448646 65.1363556,4.321188 65.1363556,6.04606221 C65.1375553,7.81534863 64.0077455,9.0504882 62.3160325,9.0504882 Z M62.3628578,4.06431738 C61.4551679,4.06431738 60.8728536,4.91415102 60.8728536,6.10247772 C60.8728536,7.26799815 61.4671744,8.11783179 62.3508513,8.11783179 C63.2369295,8.11783179 63.830057,7.20918198 63.830057,6.07847112 C63.8324509,4.92615432 63.2501366,4.06431738 62.3628578,4.06431738 Z M71.9032068,8.92205289 L70.643727,8.92205289 L70.643727,5.67155925 C70.643727,4.67048403 70.2595197,4.16874609 69.5019108,4.16874609 C68.7563084,4.16874609 68.2448323,4.80972231 68.2448323,5.55512724 L68.2448323,8.92205289 L66.9853526,8.92205289 L66.9853526,4.87934145 C66.9853526,4.37880384 66.9733461,3.84225633 66.9385273,3.26009628 L68.0455248,3.26009628 L68.1043565,4.13393652 L68.1391753,4.13393652 C68.4765574,3.5289702 69.1645287,3.14366427 69.9329434,3.14366427 C71.1215849,3.14366427 71.9032068,4.05231408 71.9032068,5.53112064 L71.9032068,8.92205289 Z M80.3689758,4.20475599 L78.9846287,4.20475599 L78.9846287,6.95351169 C78.9846287,7.65330408 79.2271596,8.00260011 79.717024,8.00260011 C79.9391438,8.00260011 80.1252443,7.97859351 80.2753253,7.94378394 L80.3101441,8.89924662 C80.0664125,8.99287236 79.7398363,9.03968523 79.3340172,9.03968523 C78.342282,9.03968523 77.7491619,8.49233475 77.7491619,7.05914073 L77.7491619,4.20475599 L76.9231161,4.20475599 L76.9231161,3.26129661 L77.7491619,3.26129661 L77.7491619,2.22421149 L78.9846287,1.85090886 L78.9846287,3.26009628 L80.3689758,3.26009628 L80.3689758,4.20475599 L80.3689758,4.20475599 Z M87.0301709,8.92205289 L85.7730925,8.92205289 L85.7730925,5.69556585 C85.7730925,4.68248733 85.3900858,4.16994642 84.6312762,4.16994642 C83.9793244,4.16994642 83.3717965,4.61286819 83.3717965,5.5095147 L83.3717965,8.92205289 L82.114718,8.92205289 L82.114718,0.66378249 L83.3717965,0.66378249 L83.3717965,4.06431738 L83.3970101,4.06431738 C83.7932239,3.44734776 84.3671337,3.14366427 85.0995289,3.14366427 C86.2977756,3.14366427 87.0301709,4.07512035 87.0301709,5.55512724 L87.0301709,8.92205289 L87.0301709,8.92205289 Z M93.8546542,6.39415791 L90.0786162,6.39415791 C90.1026292,7.4660526 90.8122121,8.07101892 91.8627791,8.07101892 C92.4210804,8.07101892 92.9349578,7.97739318 93.3888027,7.80334533 L93.5845084,8.67718557 C93.0490194,8.91004959 92.4186792,9.0264816 91.6850832,9.0264816 C89.9141274,9.0264816 88.8659617,7.90777404 88.8659617,6.17329719 C88.8659617,4.43762001 89.939341,3.1328613 91.5434068,3.1328613 C92.9901876,3.1328613 93.8978775,4.20475599 93.8978775,5.82400116 C93.9060139,6.01509253 93.8915052,6.20647521 93.8546542,6.39415791 L93.8546542,6.39415791 Z M92.7008314,5.4975114 C92.7008314,4.62367116 92.2601936,4.00670154 91.4557595,4.00670154 C90.7329694,4.00670154 90.1614609,4.63567446 90.0798168,5.4975114 L92.7008314,5.4975114 L92.7008314,5.4975114 Z" id="Shape"></path>
                        </g>
                    </g>
                </g>
            </g>
        </g>
    </g>
</svg>