<?xml version="1.0" encoding="UTF-8"?>
<svg width="163px" height="48px" viewBox="0 0 163 48" version="1.1" xmlns="http://www.w3.org/2000/svg" xmlns:xlink="http://www.w3.org/1999/xlink">
    <!-- Generator: Sketch 62 (91390) - https://sketch.com -->
    <title>Google_Play_Store_badge_EN</title>
    <desc>Created with Sketch.</desc>
    <defs>
        <linearGradient x1="61.0301652%" y1="4.94958549%" x2="26.4625815%" y2="71.9258683%" id="linearGradient-1">
            <stop stop-color="#00A0FF" offset="0%"></stop>
            <stop stop-color="#00A1FF" offset="0.6569999%"></stop>
            <stop stop-color="#00BEFF" offset="26.01%"></stop>
            <stop stop-color="#00D2FF" offset="51.22%"></stop>
            <stop stop-color="#00DFFF" offset="76.04%"></stop>
            <stop stop-color="#00E3FF" offset="100%"></stop>
        </linearGradient>
        <linearGradient x1="107.630451%" y1="50.0004315%" x2="-130.551706%" y2="50.0004315%" id="linearGradient-2">
            <stop stop-color="#FFE000" offset="0%"></stop>
            <stop stop-color="#FFBD00" offset="40.87%"></stop>
            <stop stop-color="#FFA500" offset="77.54%"></stop>
            <stop stop-color="#FF9C00" offset="100%"></stop>
        </linearGradient>
        <linearGradient x1="86.243474%" y1="30.90425%" x2="-50.1292379%" y2="136.019454%" id="linearGradient-3">
            <stop stop-color="#FF3A44" offset="0%"></stop>
            <stop stop-color="#C31162" offset="100%"></stop>
        </linearGradient>
        <linearGradient x1="-18.8105628%" y1="-11.8250802%" x2="42.0848536%" y2="35.086648%" id="linearGradient-4">
            <stop stop-color="#32A071" offset="0%"></stop>
            <stop stop-color="#2DA771" offset="6.85%"></stop>
            <stop stop-color="#15CF74" offset="47.62%"></stop>
            <stop stop-color="#06E775" offset="80.09%"></stop>
            <stop stop-color="#00F076" offset="100%"></stop>
        </linearGradient>
    </defs>
    <g id="Membership" stroke="none" stroke-width="1" fill="none" fill-rule="evenodd">
        <g id="Membership-Page-#4" transform="translate(-1153.000000, -4733.000000)">
            <g id="Group-7" transform="translate(362.000000, 4485.000000)">
                <g id="Group-34" transform="translate(613.000000, 248.000000)">
                    <g id="Google_Play_Store_badge_EN" transform="translate(178.000000, 0.000000)">
                        <path d="M156.640399,48 L6.02693267,48 C2.70523691,48 0,45.2947631 0,42 L0,6 C0,2.69326683 2.70523691,0 6.02693267,0 L156.640399,0 C159.959102,0 162.667332,2.69326683 162.667332,6 L162.667332,42 C162.667332,45.2947631 159.959102,48 156.640399,48 Z" id="Path" fill="#000000" fill-rule="nonzero"></path>
                        <path d="M156.640399,0.960598504 C159.426434,0.960598504 161.706733,3.22593516 161.706733,6 L161.706733,42 C161.706733,44.7740648 159.441397,47.0394015 156.640399,47.0394015 L6.02693267,47.0394015 C3.24089776,47.0394015 0.960598504,44.7740648 0.960598504,42 L0.960598504,6 C0.960598504,3.22593516 3.22593516,0.960598504 6.02693267,0.960598504 C6.02693267,0.960598504 156.640399,0.960598504 156.640399,0.960598504 Z M156.640399,0 L6.02693267,0 C2.70523691,0 0,2.70523691 0,6 L0,42 C0,45.3067332 2.70523691,48 6.02693267,48 L156.640399,48 C159.959102,48 162.667332,45.3067332 162.667332,42 L162.667332,6 C162.667332,2.70523691 159.959102,0 156.640399,0 Z" id="Shape" fill="#A6A6A6"></path>
                        <path d="M85.6937656,15.8783042 C84.6074813,15.8783042 83.6917706,15.4982544 82.967581,14.7501247 C82.2493766,14.0229426 81.8483791,13.0204489 81.8663342,11.9970075 C81.8663342,10.9047382 82.2374065,9.98004988 82.967581,9.24688279 C83.6887781,8.49875312 84.6044888,8.11870324 85.6907731,8.11870324 C86.7650873,8.11870324 87.680798,8.49875312 88.4169576,9.24688279 C89.1471322,10.00399 89.5182045,10.9286783 89.5182045,11.9970075 C89.5062344,13.0922693 89.1351621,14.0169576 88.4169576,14.7471322 C87.6957606,15.5012469 86.7800499,15.8783042 85.6937656,15.8783042 Z M53.3715711,15.8783042 C52.3092269,15.8783042 51.3875312,15.5042394 50.6334165,14.7650873 C49.8852868,14.0289277 49.5052369,13.0982544 49.5052369,12 C49.5052369,10.9017456 49.8852868,9.97107232 50.6334165,9.23491272 C51.3725686,8.4957606 52.2942643,8.12169576 53.3715711,8.12169576 C53.8982544,8.12169576 54.4099751,8.22643392 54.9007481,8.43890274 C55.3825436,8.64538653 55.7745636,8.92668329 56.0648379,9.27082294 L56.1366584,9.35760599 L55.3256858,10.153616 L55.2418953,10.0548628 C54.7840399,9.51022444 54.1705736,9.24389027 53.359601,9.24389027 C52.6354115,9.24389027 52.00399,9.50124688 51.4832918,10.0099751 C50.959601,10.5216958 50.6932668,11.19202 50.6932668,12.0029925 C50.6932668,12.8139651 50.959601,13.4842893 51.4832918,13.99601 C52.00399,14.5047382 52.6354115,14.7620948 53.359601,14.7620948 C54.1316708,14.7620948 54.7810474,14.5047382 55.286783,13.99601 C55.5860349,13.6967581 55.7715711,13.2778055 55.8374065,12.7481297 L53.2369077,12.7481297 L53.2369077,11.6289277 L56.953616,11.6289277 L56.9685786,11.7306733 C56.9955112,11.919202 57.0224439,12.1137157 57.0224439,12.2932668 C57.0224439,13.3256858 56.7112219,14.1605985 56.0947631,14.7770574 C55.3945137,15.5072319 54.478803,15.8783042 53.3715711,15.8783042 Z M96.3471322,15.7197007 L95.2009975,15.7197007 L91.6907731,10.1027431 L91.7206983,11.1142145 L91.7206983,15.7167082 L90.5745636,15.7167082 L90.5745636,8.28029925 L91.8822943,8.28029925 L91.9182045,8.33715711 L95.2189526,13.6279302 L95.1890274,12.6194514 L95.1890274,8.28029925 L96.3471322,8.28029925 L96.3471322,15.7197007 L96.3471322,15.7197007 Z M77.0812968,15.7197007 L75.9201995,15.7197007 L75.9201995,9.39950125 L73.9062344,9.39950125 L73.9062344,8.28029925 L79.0922693,8.28029925 L79.0922693,9.39950125 L77.0783042,9.39950125 L77.0783042,15.7197007 L77.0812968,15.7197007 Z M72.9605985,15.7197007 L71.8024938,15.7197007 L71.8024938,8.28029925 L72.9605985,8.28029925 L72.9605985,15.7197007 Z M66.4518703,15.7197007 L65.2937656,15.7197007 L65.2937656,9.39950125 L63.2798005,9.39950125 L63.2798005,8.28029925 L68.4658354,8.28029925 L68.4658354,9.39950125 L66.4518703,9.39950125 L66.4518703,15.7197007 Z M62.5466334,15.7077307 L58.1057357,15.7077307 L58.1057357,8.28029925 L62.5466334,8.28029925 L62.5466334,9.39950125 L59.2668329,9.39950125 L59.2668329,11.440399 L62.2264339,11.440399 L62.2264339,12.5476309 L59.2668329,12.5476309 L59.2668329,14.5885287 L62.5466334,14.5885287 L62.5466334,15.7077307 Z M83.8174564,13.9810474 C84.3351621,14.4987531 84.963591,14.7591022 85.6937656,14.7591022 C86.4448878,14.7591022 87.0583541,14.5047382 87.5700748,13.9810474 C88.078803,13.4723192 88.3361596,12.8049875 88.3361596,12 C88.3361596,11.1950125 88.078803,10.5246883 87.5730673,10.0189526 C87.0553616,9.50124688 86.4239401,9.24089776 85.6967581,9.24089776 C84.9456359,9.24089776 84.3321696,9.49526185 83.8234414,10.0189526 C83.3147132,10.5276808 83.0573566,11.1950125 83.0573566,12 C83.0573566,12.8049875 83.3117207,13.4753117 83.8174564,13.9810474 L83.8174564,13.9810474 Z" id="Shape" fill="#FFFFFF" fill-rule="nonzero"></path>
                        <path d="M81.7586035,26.1067332 C78.9306733,26.1067332 76.638404,28.2523691 76.638404,31.2119701 C76.638404,34.1446384 78.9456359,36.317207 81.7586035,36.317207 C84.5865337,36.317207 86.878803,34.1566085 86.878803,31.2119701 C86.878803,28.2523691 84.5865337,26.1067332 81.7586035,26.1067332 Z M81.7586035,34.2942643 C80.2114713,34.2942643 78.8798005,33.0134663 78.8798005,31.2 C78.8798005,29.359601 80.2144638,28.1057357 81.7586035,28.1057357 C83.3057357,28.1057357 84.6374115,29.359601 84.6374115,31.2 C84.640399,33.0254364 83.3057357,34.2942643 81.7586035,34.2942643 Z M70.5875312,26.1067332 C67.759601,26.1067332 65.4673317,28.2523691 65.4673317,31.2119701 C65.4673317,34.1446384 67.7745636,36.317207 70.5875312,36.317207 C73.4154613,36.317207 75.7077307,34.1566085 75.7077307,31.2119701 C75.7077307,28.2523691 73.4124688,26.1067332 70.5875312,26.1067332 Z M70.5875312,34.2942643 C69.040399,34.2942643 67.7087282,33.0134663 67.7087282,31.2 C67.7087282,29.359601 69.0433915,28.1057357 70.5875312,28.1057357 C72.1346633,28.1057357 73.4663342,29.359601 73.4663342,31.2 C73.4663342,33.0254364 72.1346633,34.2942643 70.5875312,34.2942643 Z M57.2947631,27.6658354 L57.2947631,29.8264339 L62.480798,29.8264339 C62.3221945,31.038404 61.921197,31.9331671 61.3077307,32.5466334 C60.5476309,33.3067332 59.3745636,34.1326683 57.3067332,34.1326683 C54.1197007,34.1326683 51.6269327,31.5591022 51.6269327,28.3720698 C51.6269327,25.1850374 54.1197007,22.6114713 57.3067332,22.6114713 C59.0274314,22.6114713 60.2812968,23.2907731 61.2119701,24.1586035 L62.7441397,22.6264339 C61.4513716,21.3875312 59.7306733,20.4389027 57.3187032,20.4389027 C52.9466334,20.4389027 49.2778055,24 49.2778055,28.3600998 C49.2778055,32.7321696 52.9436409,36.2812968 57.3187032,36.2812968 C59.6798005,36.2812968 61.4513716,35.5092269 62.8518703,34.0548628 C64.2793017,32.6274314 64.7311721,30.6134663 64.7311721,28.9885287 C64.7311721,28.482793 64.6922693,28.0279302 64.6114713,27.6418953 L57.2917706,27.6418953 C57.2947631,27.6389027 57.2947631,27.6658354 57.2947631,27.6658354 Z M111.665835,29.3476309 C111.237905,28.2014963 109.945137,26.0947631 107.293766,26.0947631 C104.666334,26.0947631 102.481796,28.1625935 102.481796,31.2 C102.481796,34.0668329 104.642394,36.3052369 107.54813,36.3052369 C109.882294,36.3052369 111.240898,34.8778055 111.800499,34.0399002 L110.06783,32.878803 C109.493267,33.7316708 108.694264,34.2912718 107.5601,34.2912718 C106.413965,34.2912718 105.61197,33.7705736 105.079302,32.7441397 L111.905237,29.9162095 C111.905237,29.919202 111.665835,29.3476309 111.665835,29.3476309 Z M104.705237,31.0533666 C104.651372,29.0812968 106.237406,28.078803 107.371571,28.078803 C108.266334,28.078803 109.011471,28.5187032 109.265835,29.1591022 L104.705237,31.0533666 Z M99.1600998,36 L101.401496,36 L101.401496,21.0014963 L99.1600998,21.0014963 L99.1600998,36 Z M95.4793017,27.2408978 L95.3985037,27.2408978 C94.8927681,26.6394015 93.9321696,26.0947631 92.7052369,26.0947631 C90.1586035,26.0947631 87.8124688,28.3361596 87.8124688,31.2149626 C87.8124688,34.0817955 90.1466334,36.2962594 92.7052369,36.2962594 C93.917207,36.2962594 94.8927681,35.7486284 95.3985037,35.1351621 L95.4793017,35.1351621 L95.4793017,35.8683292 C95.4793017,37.8164589 94.4379052,38.8668329 92.7591022,38.8668329 C91.3855362,38.8668329 90.5326683,37.8793017 90.1855362,37.0533666 L88.2374065,37.8673317 C88.7970075,39.2139651 90.2902743,40.880798 92.7561097,40.880798 C95.3835411,40.880798 97.6099751,39.3336658 97.6099751,35.5600998 L97.6099751,26.4 L95.4912718,26.4 L95.4912718,27.2408978 C95.4942643,27.2408978 95.4793017,27.2408978 95.4793017,27.2408978 Z M92.9057357,34.2942643 C91.3586035,34.2942643 90.0658354,33.0014963 90.0658354,31.2149626 C90.0658354,29.4134663 91.3586035,28.1087282 92.9057357,28.1087282 C94.4379052,28.1087282 95.6259352,29.4284289 95.6259352,31.2149626 C95.6408978,33.0014963 94.4408978,34.2942643 92.9057357,34.2942643 Z M122.160599,21.0014963 L116.800998,21.0014963 L116.800998,36 L119.042394,36 L119.042394,30.3201995 L122.163591,30.3201995 C124.644389,30.3201995 127.083292,28.5216958 127.083292,25.6668329 C127.083292,22.8119701 124.653367,21.0014963 122.160599,21.0014963 Z M122.226434,28.2254364 L119.039401,28.2254364 L119.039401,23.0783042 L122.226434,23.0783042 C123.905237,23.0783042 124.853865,24.4638404 124.853865,25.6518703 C124.853865,26.8279302 123.893267,28.2254364 122.226434,28.2254364 Z M136.066833,26.0798005 C134.438903,26.0798005 132.7601,26.8009975 132.065835,28.3720698 L134.052868,29.198005 C134.480798,28.3720698 135.264838,28.0907731 136.093766,28.0907731 C137.254863,28.0907731 138.42793,28.7850374 138.454863,30.0239401 L138.454863,30.1825436 C138.053865,29.9551122 137.174065,29.60798 136.120698,29.60798 C133.975062,29.60798 131.799501,30.7810474 131.799501,32.9805486 C131.799501,34.9945137 133.559102,36.2872818 135.519202,36.2872818 C137.024439,36.2872818 137.853367,35.60798 138.371072,34.8209476 L138.45187,34.8209476 L138.45187,35.9820449 L140.612469,35.9820449 L140.612469,30.236409 C140.612469,27.5610973 138.625436,26.0798005 136.066833,26.0798005 Z M135.785536,34.2942643 C135.052369,34.2942643 134.025935,33.9351621 134.025935,33.0134663 C134.025935,31.8523691 135.306733,31.4124688 136.399002,31.4124688 C137.386534,31.4124688 137.853367,31.6249377 138.4399,31.9182045 C138.278304,33.2648379 137.141147,34.2822943 135.785536,34.2942643 Z M148.494763,26.4 L145.921197,32.9057357 L145.840399,32.9057357 L143.174065,26.4 L140.762095,26.4 L144.763092,35.4942643 L142.482793,40.5486284 L144.816958,40.5486284 L150.972569,26.4 C150.972569,26.4 148.494763,26.4 148.494763,26.4 Z M128.319202,36 L130.560599,36 L130.560599,21.0014963 L128.319202,21.0014963 L128.319202,36 Z" id="Shape" fill="#FFFFFF"></path>
                        <path d="M12.5206983,9.040399 C12.1735661,9.41446384 11.9730673,9.98603491 11.9730673,10.7341646 L11.9730673,37.2688279 C11.9730673,38.0169576 12.1735661,38.5885287 12.5326683,38.9476309 L12.6254364,39.0284289 L27.4922693,24.161596 L27.4922693,23.8294264 L12.6134663,8.959601 C12.6134663,8.959601 12.5206983,9.040399 12.5206983,9.040399 Z" id="Path" fill="url(#linearGradient-1)"></path>
                        <path d="M32.4389027,29.1321696 L27.4802993,24.1735661 L27.4802993,23.8264339 L32.4389027,18.8678304 L32.5466334,18.9336658 L38.4119701,22.2673317 C40.0907731,23.2129676 40.0907731,24.7750623 38.4119701,25.7326683 L32.5466334,29.0663342 C32.5466334,29.0663342 32.4389027,29.1321696 32.4389027,29.1321696 Z" id="Path" fill="url(#linearGradient-2)"></path>
                        <path d="M32.5466334,29.0663342 L27.4802993,24 L12.5206983,38.959601 C13.0683292,39.5461347 13.9870324,39.6119701 15.0134663,39.040399 L32.5466334,29.0663342" id="Path" fill="url(#linearGradient-3)"></path>
                        <path d="M32.5466334,18.9336658 L15.0134663,8.97456359 C13.9870324,8.38802993 13.0653367,8.46882793 12.5206983,9.0553616 L27.4802993,24 L32.5466334,18.9336658 Z" id="Path" fill="url(#linearGradient-4)"></path>
                        <path d="M32.4389027,28.9586035 L15.0254364,38.8518703 C14.0528678,39.4114713 13.1850374,39.3725686 12.6254364,38.8638404 L12.5326683,38.9566085 L12.6254364,39.0374065 C13.1850374,39.5431421 14.0528678,39.5850374 15.0254364,39.0254364 L32.5586035,29.0663342 C32.5586035,29.0663342 32.4389027,28.9586035 32.4389027,28.9586035 Z" id="Path" fill="#000000" fill-rule="nonzero" opacity="0.2"></path>
                        <path d="M38.4119701,25.5591022 L32.4239401,28.9586035 L32.5316708,29.0663342 L38.3970075,25.7326683 C39.2379052,25.2538653 39.6508728,24.6254364 39.6508728,24 C39.6,24.5745636 39.1720698,25.119202 38.4119701,25.5591022 Z" id="Path" fill="#000000" fill-rule="nonzero" opacity="0.12"></path>
                        <path d="M15.0134663,9.14812968 L38.4119701,22.4408978 C39.1720698,22.8688279 39.6,23.4284289 39.6658354,24 C39.6658354,23.3745636 39.2528678,22.7461347 38.4119701,22.2673317 L15.0134663,8.97456359 C13.3346633,8.01396509 11.9730673,8.8159601 11.9730673,10.7341646 L11.9730673,10.9077307 C11.9730673,8.98653367 13.3346633,8.19950125 15.0134663,9.14812968 Z" id="Path" fill="#FFFFFF" opacity="0.25"></path>
                    </g>
                </g>
            </g>
        </g>
    </g>
</svg>