<svg width="16" height="16" viewBox="0 0 16 16" fill="none" xmlns="http://www.w3.org/2000/svg">
<g clip-path="url(#clip0_291_175)">
<path d="M16 1.77199C16 1.06031 15.4231 0.483398 14.7114 0.483398H1.28859C0.576913 0.483398 0 1.06031 0 1.77199V14.2284C0 14.94 0.576913 15.517 1.28859 15.517H14.7114C15.4231 15.517 16 14.94 16 14.2284V1.77199ZM4.88591 2.09414H7.19463V3.91964H4.88591V2.09414ZM3.27517 13.9062H1.61074V12.0807H3.27517V13.9062ZM3.27517 3.91964H1.61074V2.09414H3.27517V3.91964ZM7.19463 13.9062H4.88591V12.0807H7.19463V13.9062ZM6.60403 9.48785V6.51244C6.60403 6.06949 6.91909 5.90563 7.28966 6.14826L9.45004 7.55883C9.82062 7.80146 9.82362 8.19851 9.45305 8.4412L7.28816 9.85204C6.91758 10.0947 6.60403 9.93081 6.60403 9.48785ZM11.1141 13.9062H8.80537V12.0807H11.1141V13.9062ZM11.1141 3.91964H8.80537V2.09414H11.1141V3.91964ZM14.3893 13.9062H12.7248V12.0807H14.3893V13.9062ZM14.3893 3.91964H12.7248V2.09414H14.3893V3.91964Z" fill="#B3B3B3"/>
</g>
<defs>
<clipPath id="clip0_291_175">
<rect width="16" height="16" fill="white"/>
</clipPath>
</defs>
</svg>
