<svg width="144" height="143" viewBox="0 0 144 143" fill="none" xmlns="http://www.w3.org/2000/svg">
<circle cx="72" cy="71.5" r="71.5" fill="url(#paint0_radial_104_21)" fill-opacity="0.05"/>
<circle cx="72.0003" cy="71.4993" r="59.5833" fill="url(#paint1_radial_104_21)" fill-opacity="0.1"/>
<circle cx="71.9997" cy="71.5007" r="47.6667" fill="#ED3967"/>
<path d="M83.1704 69.1152C75.6973 69.1152 69.6162 75.1963 69.6162 82.6694C69.6162 90.1425 75.6942 96.2236 83.1704 96.2236C90.6466 96.2236 96.7246 90.1425 96.7246 82.6694C96.7246 75.1963 90.6435 69.1152 83.1704 69.1152ZM83.1704 92.0538C82.307 92.0538 81.6063 91.3531 81.6063 90.4897C81.6063 89.6264 82.307 88.9257 83.1704 88.9257C84.0338 88.9257 84.7345 89.6264 84.7345 90.4897C84.7345 91.3531 84.0338 92.0538 83.1704 92.0538ZM86.2797 82.9979C84.9159 84.0458 84.7345 85.0124 84.7345 86.3199C84.7345 87.1833 84.0338 87.884 83.1704 87.884C82.307 87.884 81.6063 87.1833 81.6063 86.3199C81.6063 84.0301 82.2945 82.1126 84.3747 80.5173C84.9253 80.095 85.2568 79.4036 85.2568 78.6717C85.2568 77.4267 84.3215 76.4132 83.1704 76.4132C82.0192 76.4132 81.0839 77.4267 81.0839 78.6717C81.0839 79.535 80.3832 80.2357 79.5199 80.2357C78.6565 80.2357 77.9558 79.535 77.9558 78.6717C77.9558 75.6999 80.2956 73.285 83.1704 73.285C86.0451 73.285 88.385 75.7031 88.385 78.6717C88.3818 80.3702 87.5967 81.9875 86.2797 82.9979Z" fill="white" fill-opacity="0.6"/>
<path d="M84.4715 47.8911C79.0693 47.0996 74.2957 48.3915 69.9164 51.8325C65.537 48.3915 60.7603 47.0996 55.3612 47.8911C53.5469 48.1413 52.1924 49.7054 52.1924 51.4978V74.3738C52.1924 75.3967 52.6303 76.3758 53.403 77.064C54.1756 77.7741 55.2392 78.1056 56.2808 77.9805C59.5967 77.6051 62.8092 78.2933 65.7685 79.9825C65.9155 80.0451 66.0406 80.1295 66.1845 80.2109C66.2064 80.1264 66.2252 80.0638 66.2471 79.9825C66.4754 79.0222 66.7882 78.0837 67.1855 77.1891C64.3295 75.5844 61.2421 74.7492 58.0514 74.7492C57.3413 74.7492 56.6531 74.7898 55.9242 74.8743C55.6959 74.8962 55.5489 74.7898 55.4863 74.7273C55.3831 74.6428 55.3205 74.5177 55.3205 74.3738V51.4978C55.3205 51.2475 55.5301 51.0192 55.7991 50.9754C60.5132 50.2872 64.5172 51.454 68.3523 54.604C68.54 54.7291 68.7058 54.8949 68.8935 55.0419C69.4784 55.5643 70.3543 55.5643 70.9361 55.0419C71.1238 54.8949 71.2896 54.7291 71.4773 54.604C75.3155 51.454 79.3195 50.3091 84.0305 50.9754C84.3026 51.0192 84.5122 51.2475 84.5122 51.4978V66.4502C85.5758 66.5128 86.6174 66.6786 87.6403 66.9288V51.4978C87.6403 49.7054 86.2858 48.1413 84.4715 47.8911Z" fill="white"/>
<path d="M66.2439 79.9864C66.222 80.0708 66.2032 80.1334 66.1813 80.2147C65.9717 81.1531 65.8278 82.1322 65.7653 83.1145H50.6251C48.6231 83.1145 46.9746 81.466 46.9746 79.464V55.4806C46.9746 53.4786 48.6012 51.852 50.6032 51.8301H53.2309C54.0848 51.8301 54.7949 52.5183 54.7949 53.3941C54.7949 54.2481 54.1067 54.9582 53.2309 54.9582H50.6251C50.3311 54.9613 50.1027 55.2116 50.1027 55.4806V79.464C50.1027 79.7549 50.3311 79.9864 50.6251 79.9864H66.2439Z" fill="white"/>
<path d="M92.8545 55.4806V69.1192C91.8754 68.5155 90.8306 67.9931 89.7264 67.5771V55.4806C89.7264 55.1897 89.498 54.9582 89.204 54.9582H86.5982C85.7443 54.9582 85.0342 54.2481 85.0342 53.3941C85.0342 52.5402 85.7443 51.8301 86.5982 51.8301H89.204C91.206 51.8332 92.8545 53.4786 92.8545 55.4806Z" fill="white"/>
<path d="M71.4777 53.9156V71.1203C70.2672 72.2246 69.2036 73.4977 68.3496 74.9147V53.9156C68.3496 53.0616 69.0597 52.3516 69.9137 52.3516C70.7708 52.3516 71.4777 53.0616 71.4777 53.9156Z" fill="white"/>
<defs>
<radialGradient id="paint0_radial_104_21" cx="0" cy="0" r="1" gradientUnits="userSpaceOnUse" gradientTransform="translate(72 71.5) rotate(90) scale(71.5)">
<stop offset="0.802083" stop-color="#FF4D7B" stop-opacity="0"/>
<stop offset="1" stop-color="#ED3967"/>
</radialGradient>
<radialGradient id="paint1_radial_104_21" cx="0" cy="0" r="1" gradientUnits="userSpaceOnUse" gradientTransform="translate(72.0003 71.4993) rotate(90) scale(59.5833)">
<stop offset="0.802083" stop-color="#FF4D7B" stop-opacity="0"/>
<stop offset="1" stop-color="#ED3967"/>
</radialGradient>
</defs>
</svg>
