<svg width="16" height="16" viewBox="0 0 16 16" fill="none" xmlns="http://www.w3.org/2000/svg">
<path d="M4.5 9H1.5C1.22386 9 1 9.22386 1 9.5V14.5C1 14.7761 1.22386 15 1.5 15H4.5C4.77614 15 5 14.7761 5 14.5V9.5C5 9.22386 4.77614 9 4.5 9Z" fill="#B3B3B3"/>
<path d="M14.5 5H11.5C11.2239 5 11 5.22386 11 5.5V14.5C11 14.7761 11.2239 15 11.5 15H14.5C14.7761 15 15 14.7761 15 14.5V5.5C15 5.22386 14.7761 5 14.5 5Z" fill="#B3B3B3"/>
<path d="M9.5 1H6.5C6.22386 1 6 1.22386 6 1.5V14.5C6 14.7761 6.22386 15 6.5 15H9.5C9.77614 15 10 14.7761 10 14.5V1.5C10 1.22386 9.77614 1 9.5 1Z" fill="#B3B3B3"/>
</svg>
