<svg width="819" height="463" viewBox="0 0 819 463" fill="none" xmlns="http://www.w3.org/2000/svg">
<path fill-rule="evenodd" clip-rule="evenodd" d="M643.86 531.995C685.422 478.673 686.511 407.103 695.401 340.083C704.144 274.175 731.979 200.079 695.24 144.667C658.355 89.0351 575.254 95.9456 514.788 67.6734C464.856 44.3264 426.075 -5.19279 370.982 -6.94775C315.5 -8.71513 265.891 25.0645 221.451 58.3293C179.535 89.7056 151.831 133.15 124.314 177.695C93.1982 228.067 49.3116 276.044 50.3953 335.241C51.5131 396.306 85.5265 454.36 130.142 496.067C172.591 535.749 235.285 536.613 289.143 558.426C350.022 583.083 401.863 637.525 467.365 632.644C536.299 627.508 601.364 586.516 643.86 531.995Z" fill="#2D9BF0" fill-opacity="0.1"/>
<path fill-rule="evenodd" clip-rule="evenodd" d="M638.611 586.302C689.507 545.453 706.441 478.466 729.692 417.487C752.557 357.519 795.177 294.105 772.984 233.886C750.704 173.428 671.106 161.445 620.593 121.445C578.879 88.4127 553.459 33.2752 502.097 19.3786C450.373 5.38393 396.263 26.086 347.123 47.454C300.773 67.6088 265.091 102.259 229.34 137.985C188.913 178.385 137.022 213.696 124.879 269.544C112.354 327.154 131.398 389.249 164.036 438.346C195.088 485.058 253.788 499.808 299.53 532.271C351.236 568.967 387.83 631.632 450.444 641.61C516.34 652.11 586.572 628.068 638.611 586.302Z" stroke="#2D9BF0" stroke-opacity="0.4"/>
<path fill-rule="evenodd" clip-rule="evenodd" d="M721.486 536.32C767.552 490.16 748.557 411.221 745.08 346.1C742.167 291.542 729.23 239.066 703.054 191.109C678.344 145.837 639.816 112.674 599.866 80.052C555.313 43.671 514.197 -6.64205 456.774 -9.99438C398.91 -13.3725 354.663 37.0301 302.696 62.7033C243.272 92.0601 172.002 100.941 129.415 151.729C81.5387 208.826 47.1131 283.734 55.2511 357.801C63.4459 432.384 122.799 488.397 172.575 544.542C221.569 599.805 267.817 677.142 341.583 680.77C417.113 684.486 458.838 588.977 529.523 562.101C591.117 538.681 674.938 582.964 721.486 536.32Z" stroke="#2D9BF0" stroke-opacity="0.8"/>
</svg>
