<svg width="823" height="463" viewBox="0 0 823 463" fill="none" xmlns="http://www.w3.org/2000/svg">
<path fill-rule="evenodd" clip-rule="evenodd" d="M643.859 531.995C685.421 478.673 686.51 407.103 695.401 340.083C704.143 274.175 731.978 200.079 695.239 144.667C658.354 89.0351 575.253 95.9456 514.787 67.6734C464.855 44.3264 426.074 -5.19279 370.981 -6.94775C315.499 -8.71513 265.89 25.0645 221.45 58.3293C179.534 89.7056 151.83 133.15 124.313 177.695C93.1972 228.067 49.3107 276.044 50.3943 335.241C51.5121 396.306 85.5255 454.36 130.141 496.067C172.59 535.749 235.284 536.613 289.142 558.426C350.021 583.083 401.862 637.525 467.364 632.644C536.298 627.508 601.363 586.516 643.859 531.995Z" fill="#FAC710" fill-opacity="0.1"/>
<path fill-rule="evenodd" clip-rule="evenodd" d="M638.611 586.302C689.507 545.453 706.441 478.466 729.692 417.487C752.557 357.519 795.177 294.105 772.984 233.886C750.704 173.428 671.106 161.445 620.593 121.445C578.879 88.4127 553.459 33.2752 502.097 19.3786C450.373 5.38393 396.263 26.086 347.123 47.454C300.773 67.6088 265.091 102.259 229.34 137.985C188.913 178.385 137.022 213.696 124.879 269.544C112.354 327.154 131.398 389.249 164.036 438.346C195.088 485.058 253.788 499.808 299.53 532.271C351.236 568.967 387.83 631.632 450.444 641.61C516.34 652.11 586.572 628.068 638.611 586.302Z" stroke="#FAC710" stroke-opacity="0.4"/>
<path fill-rule="evenodd" clip-rule="evenodd" d="M721.487 536.32C767.553 490.16 748.558 411.221 745.081 346.1C742.168 291.542 729.231 239.066 703.055 191.109C678.345 145.837 639.817 112.674 599.867 80.052C555.314 43.671 514.198 -6.64205 456.775 -9.99438C398.911 -13.3725 354.664 37.0301 302.697 62.7033C243.273 92.0601 172.003 100.941 129.416 151.729C81.5397 208.826 47.1141 283.734 55.2521 357.801C63.4469 432.384 122.8 488.397 172.576 544.542C221.57 599.805 267.818 677.142 341.583 680.77C417.114 684.486 458.839 588.977 529.524 562.101C591.118 538.681 674.939 582.964 721.487 536.32Z" stroke="#FAC710" stroke-opacity="0.8"/>
</svg>
