<svg width="344" height="78" viewBox="0 0 344 78" fill="none" xmlns="http://www.w3.org/2000/svg">
<path d="M41.659 57.4637L32.3935 62.8026L9.47344 48.2611L9.2567 48.4016C10.9906 52.3356 12.1285 55.1455 12.7245 56.9017L17.7095 71.3027L11.2073 75.0961L0.641357 44.4677L9.79854 39.1288L32.6102 53.4595L32.7728 53.3893C31.1473 49.5256 30.0636 46.7859 29.5217 45.1702L24.5367 30.6287L31.0931 26.8353L41.659 57.4637Z" fill="white"/>
<path d="M68.9679 47.9802L67.2881 45.1703L66.9089 45.3108C66.3128 46.7158 65.3917 48.0505 63.9829 49.1745C62.6283 50.2984 61.0027 51.2117 59.1063 51.8439C55.8552 52.9679 53.2002 53.0381 51.2495 52.0547C49.2989 51.0712 47.9985 49.1042 47.4024 46.1538L44.0972 29.9263L51.683 27.3271L54.6632 41.7984C55.0424 43.6248 55.6385 44.819 56.5596 45.4513C57.4807 46.0835 58.6728 46.1538 60.2442 45.5918C62.3574 44.8893 63.7662 43.6951 64.4706 42.0794C65.175 40.4636 65.175 38.2157 64.5789 35.2652L62.1948 23.6039L69.7806 21.0047L74.874 45.8025L68.9679 47.9802Z" fill="white"/>
<path d="M94.5973 14.7526C95.6268 14.5419 96.548 14.4014 97.2524 14.3312L97.5775 20.9345C96.9272 20.9345 96.1687 21.0048 95.2475 21.2155C92.8092 21.7775 90.967 22.761 89.7207 24.2362C88.4745 25.7114 88.041 27.3974 88.3119 29.4346L90.1 42.2901L82.4058 44.0464L78.938 18.7568L84.7899 17.4221L86.5238 21.4263L86.9031 21.356C87.6075 19.7403 88.637 18.3353 89.9916 17.1411C91.2921 15.9469 92.8634 15.1039 94.5973 14.7526Z" fill="white"/>
<path d="M124.778 28.451C124.995 31.0502 124.182 33.2279 122.286 34.9138C120.389 36.5998 117.409 37.7238 113.345 38.356C111.286 38.7073 109.498 38.8478 107.981 38.7775C106.518 38.7775 105.109 38.5668 103.755 38.2858L103.213 32.5254C104.73 32.9469 106.41 33.1576 108.252 33.2981C110.094 33.4386 111.72 33.3684 113.074 33.1576C115.892 32.7361 117.247 31.7527 117.138 30.3477C117.084 29.7857 116.867 29.3642 116.434 29.0832C116.055 28.8022 115.35 28.5212 114.375 28.2402C113.399 27.9592 112.153 27.608 110.582 27.2567C108.306 26.765 106.626 26.2733 105.543 25.7113C104.459 25.1493 103.646 24.4468 103.104 23.6741C102.563 22.8311 102.237 21.7773 102.075 20.4426C101.858 18.1947 102.671 16.2979 104.567 14.7525C106.41 13.207 109.173 12.1533 112.749 11.5913C116.163 11.0995 119.577 11.24 122.99 12.083L121.094 17.4922C119.631 17.1409 118.222 16.9302 116.976 16.7897C115.675 16.6492 114.429 16.6492 113.129 16.8599C110.853 17.2112 109.715 17.9137 109.823 19.0376C109.878 19.6699 110.311 20.1616 111.07 20.5129C111.828 20.8641 113.508 21.2856 116.109 21.7773C118.384 22.2691 120.118 22.7608 121.202 23.3228C122.286 23.8848 123.153 24.5873 123.695 25.36C124.345 26.1328 124.67 27.1865 124.778 28.451Z" fill="white"/>
<path d="M144.23 34.8434C139.624 35.1946 135.94 34.2814 133.231 32.2442C130.521 30.1367 129.112 27.0458 128.896 22.8309C128.733 18.5457 129.763 15.1035 132.038 12.5746C134.314 10.0456 137.619 8.64063 141.846 8.28939C145.91 8.00839 149.107 8.78113 151.437 10.6778C153.766 12.5746 155.067 15.3143 155.175 18.9672L155.338 22.3391L136.861 23.6738C137.023 25.6408 137.782 27.1863 139.028 28.1698C140.329 29.2235 142.063 29.645 144.284 29.4342C146.018 29.2937 147.644 29.0127 149.161 28.5913C150.678 28.1698 152.249 27.5375 153.929 26.6945L154.146 32.1037C152.791 32.8062 151.382 33.3682 149.811 33.7897C148.348 34.4219 146.452 34.7029 144.23 34.8434ZM142.171 13.3473C140.491 13.4878 139.245 14.0498 138.324 15.0333C137.403 16.0167 136.969 17.4217 136.861 19.1779L147.86 18.3349C147.752 16.5787 147.21 15.3143 146.181 14.4713C145.151 13.6283 143.851 13.2068 142.171 13.3473Z" fill="white"/>
<path d="M181.943 25.781C181.943 28.4504 180.913 30.4174 178.908 31.8224C176.849 33.2273 173.815 33.9298 169.751 33.9298C167.638 33.9298 165.904 33.8596 164.387 33.5786C162.924 33.3678 161.515 32.9463 160.269 32.5248V26.7644C161.732 27.3967 163.357 27.8884 165.2 28.2397C167.042 28.6612 168.613 28.8017 170.022 28.8017C172.84 28.8017 174.303 28.0289 174.303 26.5537C174.303 25.9917 174.086 25.5702 173.707 25.219C173.327 24.8677 172.677 24.5165 171.756 24.095C170.835 23.6735 169.589 23.1818 168.071 22.6198C165.85 21.7768 164.224 21.0743 163.195 20.3718C162.165 19.6693 161.407 18.8966 160.919 17.9834C160.431 17.0701 160.215 15.9461 160.215 14.6114C160.215 12.3635 161.19 10.537 163.141 9.27252C165.091 8.00804 167.909 7.3758 171.539 7.30556C175.007 7.30556 178.366 7.93779 181.672 9.27252L179.342 14.3304C177.879 13.7684 176.578 13.3469 175.278 12.9957C174.032 12.6445 172.731 12.504 171.431 12.504C169.101 12.504 167.963 13.0659 167.963 14.1899C167.963 14.8222 168.342 15.3842 169.101 15.8056C169.859 16.2271 171.485 16.9296 174.032 17.8429C176.253 18.6156 177.933 19.3883 178.962 20.0908C179.992 20.7933 180.805 21.566 181.292 22.4793C181.672 23.3925 181.943 24.5165 181.943 25.781Z" fill="white"/>
<path d="M238.186 38.988L229.138 37.7938L225.507 19.5291C225.345 18.8969 225.128 17.5622 224.857 15.525C224.586 13.4877 224.423 12.153 224.369 11.4505C224.207 12.2935 223.827 13.558 223.286 15.3142C222.744 17.0704 222.31 18.3349 222.039 19.1076L215.591 35.9673L206.597 34.7731L199.77 0L207.572 1.05373L210.877 19.9506C211.419 23.4631 211.799 26.4135 212.015 28.9425C212.178 28.0995 212.503 26.7647 213.045 25.0085C213.532 23.2523 214.02 21.8473 214.399 20.9341L221.335 2.95044L228.812 3.93393L232.768 23.3928C232.93 24.2358 233.147 25.5705 233.364 27.3267C233.581 29.083 233.743 30.6284 233.852 31.8929C234.123 30.6987 234.502 29.2937 235.044 27.5375C235.586 25.7813 236.019 24.4465 236.398 23.3928L242.63 5.76039L250.432 6.81412L238.186 38.988Z" fill="white"/>
<path d="M263.762 45.5914C259.21 44.3972 255.851 42.36 253.683 39.4095C251.462 36.5294 250.703 33.0169 251.353 28.8722C252.004 24.6573 253.737 21.7069 256.447 20.0209C259.156 18.3349 262.624 18.0539 266.796 19.1779C270.751 20.2317 273.732 22.0581 275.628 24.6573C277.524 27.2565 278.175 30.3475 277.633 33.9302L277.091 37.2318L258.939 32.3847C258.722 34.3516 259.102 36.0376 260.131 37.4426C261.161 38.8476 262.786 39.831 264.954 40.4633C266.633 40.8848 268.259 41.1658 269.83 41.236C271.402 41.3063 273.027 41.236 274.815 40.955L274.002 46.2939C272.539 46.5047 271.076 46.5749 269.505 46.5047C267.825 46.5047 265.929 46.1534 263.762 45.5914ZM266.037 24.0953C264.412 23.6738 263.057 23.8143 261.973 24.4466C260.89 25.1491 260.185 26.273 259.752 27.959L270.535 30.8392C270.751 29.1532 270.48 27.678 269.668 26.4838C268.855 25.2896 267.663 24.5168 266.037 24.0953Z" fill="white"/>
<path d="M293.238 55.4964C288.795 53.7402 285.598 51.2815 283.647 48.0501C281.697 44.8889 281.155 41.3062 282.13 37.302C283.105 33.1573 285.002 30.4879 287.874 29.1532C290.745 27.8184 294.159 27.9589 298.223 29.5746C302.124 31.1201 304.888 33.2978 306.567 36.178C308.247 38.988 308.681 42.1492 307.868 45.6616L307.109 48.893L289.391 41.7979C289.012 43.7649 289.283 45.4509 290.204 46.9963C291.125 48.5418 292.642 49.736 294.809 50.579C296.489 51.2113 298.06 51.703 299.632 51.984C301.203 52.265 302.829 52.4055 304.617 52.3352L303.371 57.5336C301.908 57.6039 300.39 57.4634 298.873 57.1824C297.356 56.9014 295.351 56.3394 293.238 55.4964ZM297.085 34.3516C295.514 33.7193 294.159 33.6491 293.021 34.2111C291.883 34.7731 291.071 35.8268 290.583 37.4425L301.095 41.6574C301.474 39.9715 301.257 38.4962 300.553 37.2318C299.848 35.9673 298.711 34.9838 297.085 34.3516Z" fill="white"/>
<path d="M321.143 53.5997L325.532 51.984L335.393 49.455L343.358 54.4427L329.325 58.0956L335.393 77.976L327.266 72.9181L323.31 58.8684L319.463 59.1494L316.808 66.385L309.764 61.9593L321.739 29.7152L328.783 34.1408L323.473 48.5418L321.143 53.5997Z" fill="white"/>
</svg>
