<svg width="589" height="394" viewBox="0 0 589 394" fill="none" xmlns="http://www.w3.org/2000/svg">
<mask id="mask0_226_313" style="mask-type:alpha" maskUnits="userSpaceOnUse" x="0" y="0" width="589" height="394">
<circle cx="514.089" cy="211.843" r="4.04795" transform="rotate(-90 514.089 211.843)" fill="white"/>
<circle cx="514.089" cy="330.582" r="4.04795" transform="rotate(-90 514.089 330.582)" fill="white"/>
<circle cx="514.089" cy="93.1024" r="4.04795" transform="rotate(-90 514.089 93.1024)" fill="white"/>
<circle cx="514.089" cy="271.212" r="4.04795" transform="rotate(-90 514.089 271.212)" fill="white"/>
<circle cx="514.089" cy="33.7333" r="4.04795" transform="rotate(-90 514.089 33.7333)" fill="white"/>
<circle cx="514.089" cy="389.952" r="4.04795" transform="rotate(-90 514.089 389.952)" fill="white"/>
<circle cx="514.089" cy="152.473" r="4.04795" transform="rotate(-90 514.089 152.473)" fill="white"/>
<circle cx="492.5" cy="182.158" r="4.04795" transform="rotate(-90 492.5 182.158)" fill="white"/>
<circle cx="492.5" cy="300.897" r="4.04795" transform="rotate(-90 492.5 300.897)" fill="white"/>
<circle cx="492.5" cy="63.4179" r="4.04795" transform="rotate(-90 492.5 63.4179)" fill="white"/>
<circle cx="492.5" cy="241.527" r="4.04795" transform="rotate(-90 492.5 241.527)" fill="white"/>
<circle cx="492.5" cy="4.04776" r="4.04795" transform="rotate(-90 492.5 4.04776)" fill="white"/>
<circle cx="492.5" cy="360.267" r="4.04795" transform="rotate(-90 492.5 360.267)" fill="white"/>
<circle cx="492.5" cy="122.788" r="4.04795" transform="rotate(-90 492.5 122.788)" fill="white"/>
<circle cx="549.171" cy="211.843" r="4.04795" transform="rotate(-90 549.171 211.843)" fill="white"/>
<circle cx="549.171" cy="330.582" r="4.04795" transform="rotate(-90 549.171 330.582)" fill="white"/>
<circle cx="549.171" cy="93.1024" r="4.04795" transform="rotate(-90 549.171 93.1024)" fill="white"/>
<circle cx="549.171" cy="271.212" r="4.04795" transform="rotate(-90 549.171 271.212)" fill="white"/>
<circle cx="549.171" cy="33.7333" r="4.04795" transform="rotate(-90 549.171 33.7333)" fill="white"/>
<circle cx="549.171" cy="389.952" r="4.04795" transform="rotate(-90 549.171 389.952)" fill="white"/>
<circle cx="549.171" cy="152.473" r="4.04795" transform="rotate(-90 549.171 152.473)" fill="white"/>
<circle cx="527.582" cy="182.158" r="4.04795" transform="rotate(-90 527.582 182.158)" fill="white"/>
<circle cx="527.582" cy="300.897" r="4.04795" transform="rotate(-90 527.582 300.897)" fill="white"/>
<circle cx="527.582" cy="63.4179" r="4.04795" transform="rotate(-90 527.582 63.4179)" fill="white"/>
<circle cx="527.582" cy="241.527" r="4.04795" transform="rotate(-90 527.582 241.527)" fill="white"/>
<circle cx="527.582" cy="4.04776" r="4.04795" transform="rotate(-90 527.582 4.04776)" fill="white"/>
<circle cx="527.582" cy="360.267" r="4.04795" transform="rotate(-90 527.582 360.267)" fill="white"/>
<circle cx="527.582" cy="122.788" r="4.04795" transform="rotate(-90 527.582 122.788)" fill="white"/>
<circle cx="584.253" cy="211.843" r="4.04795" transform="rotate(-90 584.253 211.843)" fill="white"/>
<circle cx="584.253" cy="330.582" r="4.04795" transform="rotate(-90 584.253 330.582)" fill="white"/>
<circle cx="584.253" cy="93.1024" r="4.04795" transform="rotate(-90 584.253 93.1024)" fill="white"/>
<circle cx="584.253" cy="271.212" r="4.04795" transform="rotate(-90 584.253 271.212)" fill="white"/>
<circle cx="584.253" cy="33.7333" r="4.04795" transform="rotate(-90 584.253 33.7333)" fill="white"/>
<circle cx="584.253" cy="389.952" r="4.04795" transform="rotate(-90 584.253 389.952)" fill="white"/>
<circle cx="584.253" cy="152.473" r="4.04795" transform="rotate(-90 584.253 152.473)" fill="white"/>
<circle cx="562.664" cy="182.158" r="4.04795" transform="rotate(-90 562.664 182.158)" fill="white"/>
<circle cx="562.664" cy="300.897" r="4.04795" transform="rotate(-90 562.664 300.897)" fill="white"/>
<circle cx="562.664" cy="63.4179" r="4.04795" transform="rotate(-90 562.664 63.4179)" fill="white"/>
<circle cx="562.664" cy="241.527" r="4.04795" transform="rotate(-90 562.664 241.527)" fill="white"/>
<circle cx="562.664" cy="4.04776" r="4.04795" transform="rotate(-90 562.664 4.04776)" fill="white"/>
<circle cx="562.664" cy="360.267" r="4.04795" transform="rotate(-90 562.664 360.267)" fill="white"/>
<circle cx="562.664" cy="122.788" r="4.04795" transform="rotate(-90 562.664 122.788)" fill="white"/>
<circle cx="410.192" cy="211.843" r="4.04795" transform="rotate(-90 410.192 211.843)" fill="white"/>
<circle cx="410.192" cy="330.582" r="4.04795" transform="rotate(-90 410.192 330.582)" fill="white"/>
<circle cx="410.192" cy="93.1024" r="4.04795" transform="rotate(-90 410.192 93.1024)" fill="white"/>
<circle cx="410.192" cy="271.212" r="4.04795" transform="rotate(-90 410.192 271.212)" fill="white"/>
<circle cx="410.192" cy="33.7333" r="4.04795" transform="rotate(-90 410.192 33.7333)" fill="white"/>
<circle cx="410.192" cy="389.952" r="4.04795" transform="rotate(-90 410.192 389.952)" fill="white"/>
<circle cx="410.192" cy="152.473" r="4.04795" transform="rotate(-90 410.192 152.473)" fill="white"/>
<circle cx="388.603" cy="182.158" r="4.04795" transform="rotate(-90 388.603 182.158)" fill="white"/>
<circle cx="388.603" cy="300.897" r="4.04795" transform="rotate(-90 388.603 300.897)" fill="white"/>
<circle cx="388.603" cy="63.4179" r="4.04795" transform="rotate(-90 388.603 63.4179)" fill="white"/>
<circle cx="388.603" cy="241.527" r="4.04795" transform="rotate(-90 388.603 241.527)" fill="white"/>
<circle cx="388.603" cy="4.04776" r="4.04795" transform="rotate(-90 388.603 4.04776)" fill="white"/>
<circle cx="388.603" cy="360.267" r="4.04795" transform="rotate(-90 388.603 360.267)" fill="white"/>
<circle cx="388.603" cy="122.788" r="4.04795" transform="rotate(-90 388.603 122.788)" fill="white"/>
<circle cx="304.945" cy="211.843" r="4.04795" transform="rotate(-90 304.945 211.843)" fill="white"/>
<circle cx="304.945" cy="330.582" r="4.04795" transform="rotate(-90 304.945 330.582)" fill="white"/>
<circle cx="304.945" cy="93.1024" r="4.04795" transform="rotate(-90 304.945 93.1024)" fill="white"/>
<circle cx="304.945" cy="271.212" r="4.04795" transform="rotate(-90 304.945 271.212)" fill="white"/>
<circle cx="304.945" cy="33.7333" r="4.04795" transform="rotate(-90 304.945 33.7333)" fill="white"/>
<circle cx="304.945" cy="389.952" r="4.04795" transform="rotate(-90 304.945 389.952)" fill="white"/>
<circle cx="304.945" cy="152.473" r="4.04795" transform="rotate(-90 304.945 152.473)" fill="white"/>
<circle cx="445.274" cy="211.843" r="4.04795" transform="rotate(-90 445.274 211.843)" fill="white"/>
<circle cx="445.274" cy="330.582" r="4.04795" transform="rotate(-90 445.274 330.582)" fill="white"/>
<circle cx="445.274" cy="93.1024" r="4.04795" transform="rotate(-90 445.274 93.1024)" fill="white"/>
<circle cx="445.274" cy="271.212" r="4.04795" transform="rotate(-90 445.274 271.212)" fill="white"/>
<circle cx="445.274" cy="33.7333" r="4.04795" transform="rotate(-90 445.274 33.7333)" fill="white"/>
<circle cx="445.274" cy="389.952" r="4.04795" transform="rotate(-90 445.274 389.952)" fill="white"/>
<circle cx="445.274" cy="152.473" r="4.04795" transform="rotate(-90 445.274 152.473)" fill="white"/>
<circle cx="423.685" cy="182.158" r="4.04795" transform="rotate(-90 423.685 182.158)" fill="white"/>
<circle cx="423.685" cy="300.897" r="4.04795" transform="rotate(-90 423.685 300.897)" fill="white"/>
<circle cx="423.685" cy="63.4179" r="4.04795" transform="rotate(-90 423.685 63.4179)" fill="white"/>
<circle cx="423.685" cy="241.527" r="4.04795" transform="rotate(-90 423.685 241.527)" fill="white"/>
<circle cx="423.685" cy="4.04776" r="4.04795" transform="rotate(-90 423.685 4.04776)" fill="white"/>
<circle cx="423.685" cy="360.267" r="4.04795" transform="rotate(-90 423.685 360.267)" fill="white"/>
<circle cx="423.685" cy="122.788" r="4.04795" transform="rotate(-90 423.685 122.788)" fill="white"/>
<circle cx="340.027" cy="211.843" r="4.04795" transform="rotate(-90 340.027 211.843)" fill="white"/>
<circle cx="340.027" cy="330.582" r="4.04795" transform="rotate(-90 340.027 330.582)" fill="white"/>
<circle cx="340.027" cy="93.1024" r="4.04795" transform="rotate(-90 340.027 93.1024)" fill="white"/>
<circle cx="340.027" cy="271.212" r="4.04795" transform="rotate(-90 340.027 271.212)" fill="white"/>
<circle cx="340.027" cy="33.7333" r="4.04795" transform="rotate(-90 340.027 33.7333)" fill="white"/>
<circle cx="340.027" cy="389.952" r="4.04795" transform="rotate(-90 340.027 389.952)" fill="white"/>
<circle cx="340.027" cy="152.473" r="4.04795" transform="rotate(-90 340.027 152.473)" fill="white"/>
<circle cx="318.438" cy="182.158" r="4.04795" transform="rotate(-90 318.438 182.158)" fill="white"/>
<circle cx="318.438" cy="300.897" r="4.04795" transform="rotate(-90 318.438 300.897)" fill="white"/>
<circle cx="318.438" cy="63.4179" r="4.04795" transform="rotate(-90 318.438 63.4179)" fill="white"/>
<circle cx="318.438" cy="241.527" r="4.04795" transform="rotate(-90 318.438 241.527)" fill="white"/>
<circle cx="318.438" cy="4.04776" r="4.04795" transform="rotate(-90 318.438 4.04776)" fill="white"/>
<circle cx="318.438" cy="360.267" r="4.04795" transform="rotate(-90 318.438 360.267)" fill="white"/>
<circle cx="318.438" cy="122.788" r="4.04795" transform="rotate(-90 318.438 122.788)" fill="white"/>
<circle cx="480.356" cy="211.843" r="4.04795" transform="rotate(-90 480.356 211.843)" fill="white"/>
<circle cx="480.356" cy="330.582" r="4.04795" transform="rotate(-90 480.356 330.582)" fill="white"/>
<circle cx="480.356" cy="93.1024" r="4.04795" transform="rotate(-90 480.356 93.1024)" fill="white"/>
<circle cx="480.356" cy="271.212" r="4.04795" transform="rotate(-90 480.356 271.212)" fill="white"/>
<circle cx="480.356" cy="33.7333" r="4.04795" transform="rotate(-90 480.356 33.7333)" fill="white"/>
<circle cx="480.356" cy="389.952" r="4.04795" transform="rotate(-90 480.356 389.952)" fill="white"/>
<circle cx="480.356" cy="152.473" r="4.04795" transform="rotate(-90 480.356 152.473)" fill="white"/>
<circle cx="458.767" cy="182.158" r="4.04795" transform="rotate(-90 458.767 182.158)" fill="white"/>
<circle cx="458.767" cy="300.897" r="4.04795" transform="rotate(-90 458.767 300.897)" fill="white"/>
<circle cx="458.767" cy="63.4179" r="4.04795" transform="rotate(-90 458.767 63.4179)" fill="white"/>
<circle cx="458.767" cy="241.527" r="4.04795" transform="rotate(-90 458.767 241.527)" fill="white"/>
<circle cx="458.767" cy="4.04776" r="4.04795" transform="rotate(-90 458.767 4.04776)" fill="white"/>
<circle cx="458.767" cy="360.267" r="4.04795" transform="rotate(-90 458.767 360.267)" fill="white"/>
<circle cx="458.767" cy="122.788" r="4.04795" transform="rotate(-90 458.767 122.788)" fill="white"/>
<circle cx="375.11" cy="211.843" r="4.04795" transform="rotate(-90 375.11 211.843)" fill="white"/>
<circle cx="375.11" cy="330.582" r="4.04795" transform="rotate(-90 375.11 330.582)" fill="white"/>
<circle cx="375.11" cy="93.1024" r="4.04795" transform="rotate(-90 375.11 93.1024)" fill="white"/>
<circle cx="375.11" cy="271.212" r="4.04795" transform="rotate(-90 375.11 271.212)" fill="white"/>
<circle cx="375.11" cy="33.7333" r="4.04795" transform="rotate(-90 375.11 33.7333)" fill="white"/>
<circle cx="375.11" cy="389.952" r="4.04795" transform="rotate(-90 375.11 389.952)" fill="white"/>
<circle cx="375.11" cy="152.473" r="4.04795" transform="rotate(-90 375.11 152.473)" fill="white"/>
<circle cx="353.521" cy="182.158" r="4.04795" transform="rotate(-90 353.521 182.158)" fill="white"/>
<circle cx="353.521" cy="300.897" r="4.04795" transform="rotate(-90 353.521 300.897)" fill="white"/>
<circle cx="353.521" cy="63.4179" r="4.04795" transform="rotate(-90 353.521 63.4179)" fill="white"/>
<circle cx="353.521" cy="241.527" r="4.04795" transform="rotate(-90 353.521 241.527)" fill="white"/>
<circle cx="353.521" cy="4.04776" r="4.04795" transform="rotate(-90 353.521 4.04776)" fill="white"/>
<circle cx="353.521" cy="360.267" r="4.04795" transform="rotate(-90 353.521 360.267)" fill="white"/>
<circle cx="353.521" cy="122.788" r="4.04795" transform="rotate(-90 353.521 122.788)" fill="white"/>
<circle cx="234.781" cy="211.843" r="4.04795" transform="rotate(-90 234.781 211.843)" fill="white"/>
<circle cx="234.781" cy="330.582" r="4.04795" transform="rotate(-90 234.781 330.582)" fill="white"/>
<circle cx="234.781" cy="93.1024" r="4.04795" transform="rotate(-90 234.781 93.1024)" fill="white"/>
<circle cx="234.781" cy="271.212" r="4.04795" transform="rotate(-90 234.781 271.212)" fill="white"/>
<circle cx="234.781" cy="33.7333" r="4.04795" transform="rotate(-90 234.781 33.7333)" fill="white"/>
<circle cx="234.781" cy="389.952" r="4.04795" transform="rotate(-90 234.781 389.952)" fill="white"/>
<circle cx="234.781" cy="152.473" r="4.04795" transform="rotate(-90 234.781 152.473)" fill="white"/>
<circle cx="213.192" cy="182.158" r="4.04795" transform="rotate(-90 213.192 182.158)" fill="white"/>
<circle cx="213.192" cy="300.897" r="4.04795" transform="rotate(-90 213.192 300.897)" fill="white"/>
<circle cx="213.192" cy="63.4179" r="4.04795" transform="rotate(-90 213.192 63.4179)" fill="white"/>
<circle cx="213.192" cy="241.527" r="4.04795" transform="rotate(-90 213.192 241.527)" fill="white"/>
<circle cx="213.192" cy="4.04776" r="4.04795" transform="rotate(-90 213.192 4.04776)" fill="white"/>
<circle cx="213.192" cy="360.267" r="4.04795" transform="rotate(-90 213.192 360.267)" fill="white"/>
<circle cx="213.192" cy="122.788" r="4.04795" transform="rotate(-90 213.192 122.788)" fill="white"/>
<circle cx="269.863" cy="211.843" r="4.04795" transform="rotate(-90 269.863 211.843)" fill="white"/>
<circle cx="269.863" cy="330.582" r="4.04795" transform="rotate(-90 269.863 330.582)" fill="white"/>
<circle cx="269.863" cy="93.1024" r="4.04795" transform="rotate(-90 269.863 93.1024)" fill="white"/>
<circle cx="269.863" cy="271.212" r="4.04795" transform="rotate(-90 269.863 271.212)" fill="white"/>
<circle cx="269.863" cy="33.7333" r="4.04795" transform="rotate(-90 269.863 33.7333)" fill="white"/>
<circle cx="269.863" cy="389.952" r="4.04795" transform="rotate(-90 269.863 389.952)" fill="white"/>
<circle cx="269.863" cy="152.473" r="4.04795" transform="rotate(-90 269.863 152.473)" fill="white"/>
<circle cx="248.274" cy="182.158" r="4.04795" transform="rotate(-90 248.274 182.158)" fill="white"/>
<circle cx="248.274" cy="300.897" r="4.04795" transform="rotate(-90 248.274 300.897)" fill="white"/>
<circle cx="248.274" cy="63.4179" r="4.04795" transform="rotate(-90 248.274 63.4179)" fill="white"/>
<circle cx="248.274" cy="241.527" r="4.04795" transform="rotate(-90 248.274 241.527)" fill="white"/>
<circle cx="248.274" cy="4.04776" r="4.04795" transform="rotate(-90 248.274 4.04776)" fill="white"/>
<circle cx="248.274" cy="360.267" r="4.04795" transform="rotate(-90 248.274 360.267)" fill="white"/>
<circle cx="248.274" cy="122.788" r="4.04795" transform="rotate(-90 248.274 122.788)" fill="white"/>
<circle cx="283.356" cy="182.158" r="4.04795" transform="rotate(-90 283.356 182.158)" fill="white"/>
<circle cx="283.356" cy="300.897" r="4.04795" transform="rotate(-90 283.356 300.897)" fill="white"/>
<circle cx="283.356" cy="63.4179" r="4.04795" transform="rotate(-90 283.356 63.4179)" fill="white"/>
<circle cx="283.356" cy="241.527" r="4.04795" transform="rotate(-90 283.356 241.527)" fill="white"/>
<circle cx="283.356" cy="4.04776" r="4.04795" transform="rotate(-90 283.356 4.04776)" fill="white"/>
<circle cx="283.356" cy="360.267" r="4.04795" transform="rotate(-90 283.356 360.267)" fill="white"/>
<circle cx="283.356" cy="122.788" r="4.04795" transform="rotate(-90 283.356 122.788)" fill="white"/>
<circle cx="130.884" cy="211.843" r="4.04795" transform="rotate(-90 130.884 211.843)" fill="white"/>
<circle cx="130.884" cy="330.582" r="4.04795" transform="rotate(-90 130.884 330.582)" fill="white"/>
<circle cx="130.884" cy="93.1024" r="4.04795" transform="rotate(-90 130.884 93.1024)" fill="white"/>
<circle cx="130.884" cy="271.212" r="4.04795" transform="rotate(-90 130.884 271.212)" fill="white"/>
<circle cx="130.884" cy="33.7333" r="4.04795" transform="rotate(-90 130.884 33.7333)" fill="white"/>
<circle cx="130.884" cy="389.952" r="4.04795" transform="rotate(-90 130.884 389.952)" fill="white"/>
<circle cx="130.884" cy="152.473" r="4.04795" transform="rotate(-90 130.884 152.473)" fill="white"/>
<circle cx="109.295" cy="182.158" r="4.04795" transform="rotate(-90 109.295 182.158)" fill="white"/>
<circle cx="109.295" cy="300.897" r="4.04795" transform="rotate(-90 109.295 300.897)" fill="white"/>
<circle cx="109.295" cy="63.4179" r="4.04795" transform="rotate(-90 109.295 63.4179)" fill="white"/>
<circle cx="109.295" cy="241.527" r="4.04795" transform="rotate(-90 109.295 241.527)" fill="white"/>
<circle cx="109.295" cy="4.04776" r="4.04795" transform="rotate(-90 109.295 4.04776)" fill="white"/>
<circle cx="109.295" cy="360.267" r="4.04795" transform="rotate(-90 109.295 360.267)" fill="white"/>
<circle cx="109.295" cy="122.788" r="4.04795" transform="rotate(-90 109.295 122.788)" fill="white"/>
<circle cx="25.6369" cy="211.843" r="4.04795" transform="rotate(-90 25.6369 211.843)" fill="white"/>
<circle cx="25.6369" cy="330.582" r="4.04795" transform="rotate(-90 25.6369 330.582)" fill="white"/>
<circle cx="25.6369" cy="93.1024" r="4.04795" transform="rotate(-90 25.6369 93.1024)" fill="white"/>
<circle cx="25.6369" cy="271.212" r="4.04795" transform="rotate(-90 25.6369 271.212)" fill="white"/>
<circle cx="25.6369" cy="33.7333" r="4.04795" transform="rotate(-90 25.6369 33.7333)" fill="white"/>
<circle cx="25.6369" cy="389.952" r="4.04795" transform="rotate(-90 25.6369 389.952)" fill="white"/>
<circle cx="25.6369" cy="152.473" r="4.04795" transform="rotate(-90 25.6369 152.473)" fill="white"/>
<circle cx="4.04795" cy="182.158" r="4.04795" transform="rotate(-90 4.04795 182.158)" fill="white"/>
<circle cx="4.04795" cy="300.897" r="4.04795" transform="rotate(-90 4.04795 300.897)" fill="white"/>
<circle cx="4.04795" cy="63.4179" r="4.04795" transform="rotate(-90 4.04795 63.4179)" fill="white"/>
<circle cx="4.04795" cy="241.527" r="4.04795" transform="rotate(-90 4.04795 241.527)" fill="white"/>
<circle cx="4.04795" cy="4.04776" r="4.04795" transform="rotate(-90 4.04795 4.04776)" fill="white"/>
<circle cx="4.04795" cy="360.267" r="4.04795" transform="rotate(-90 4.04795 360.267)" fill="white"/>
<circle cx="4.04795" cy="122.788" r="4.04795" transform="rotate(-90 4.04795 122.788)" fill="white"/>
<circle cx="165.966" cy="211.843" r="4.04795" transform="rotate(-90 165.966 211.843)" fill="white"/>
<circle cx="165.966" cy="330.582" r="4.04795" transform="rotate(-90 165.966 330.582)" fill="white"/>
<circle cx="165.966" cy="93.1024" r="4.04795" transform="rotate(-90 165.966 93.1024)" fill="white"/>
<circle cx="165.966" cy="271.212" r="4.04795" transform="rotate(-90 165.966 271.212)" fill="white"/>
<circle cx="165.966" cy="33.7333" r="4.04795" transform="rotate(-90 165.966 33.7333)" fill="white"/>
<circle cx="165.966" cy="389.952" r="4.04795" transform="rotate(-90 165.966 389.952)" fill="white"/>
<circle cx="165.966" cy="152.473" r="4.04795" transform="rotate(-90 165.966 152.473)" fill="white"/>
<circle cx="144.377" cy="182.158" r="4.04795" transform="rotate(-90 144.377 182.158)" fill="white"/>
<circle cx="144.377" cy="300.897" r="4.04795" transform="rotate(-90 144.377 300.897)" fill="white"/>
<circle cx="144.377" cy="63.4179" r="4.04795" transform="rotate(-90 144.377 63.4179)" fill="white"/>
<circle cx="144.377" cy="241.527" r="4.04795" transform="rotate(-90 144.377 241.527)" fill="white"/>
<circle cx="144.377" cy="4.04776" r="4.04795" transform="rotate(-90 144.377 4.04776)" fill="white"/>
<circle cx="144.377" cy="360.267" r="4.04795" transform="rotate(-90 144.377 360.267)" fill="white"/>
<circle cx="144.377" cy="122.788" r="4.04795" transform="rotate(-90 144.377 122.788)" fill="white"/>
<circle cx="60.7192" cy="211.843" r="4.04795" transform="rotate(-90 60.7192 211.843)" fill="white"/>
<circle cx="60.7192" cy="330.582" r="4.04795" transform="rotate(-90 60.7192 330.582)" fill="white"/>
<circle cx="60.7192" cy="93.1024" r="4.04795" transform="rotate(-90 60.7192 93.1024)" fill="white"/>
<circle cx="60.7192" cy="271.212" r="4.04795" transform="rotate(-90 60.7192 271.212)" fill="white"/>
<circle cx="60.7192" cy="33.7333" r="4.04795" transform="rotate(-90 60.7192 33.7333)" fill="white"/>
<circle cx="60.7192" cy="389.952" r="4.04795" transform="rotate(-90 60.7192 389.952)" fill="white"/>
<circle cx="60.7192" cy="152.473" r="4.04795" transform="rotate(-90 60.7192 152.473)" fill="white"/>
<circle cx="39.1301" cy="182.158" r="4.04795" transform="rotate(-90 39.1301 182.158)" fill="white"/>
<circle cx="39.1301" cy="300.897" r="4.04795" transform="rotate(-90 39.1301 300.897)" fill="white"/>
<circle cx="39.1301" cy="63.4179" r="4.04795" transform="rotate(-90 39.1301 63.4179)" fill="white"/>
<circle cx="39.1301" cy="241.527" r="4.04795" transform="rotate(-90 39.1301 241.527)" fill="white"/>
<circle cx="39.1301" cy="4.04776" r="4.04795" transform="rotate(-90 39.1301 4.04776)" fill="white"/>
<circle cx="39.1301" cy="360.267" r="4.04795" transform="rotate(-90 39.1301 360.267)" fill="white"/>
<circle cx="39.1301" cy="122.788" r="4.04795" transform="rotate(-90 39.1301 122.788)" fill="white"/>
<circle cx="201.048" cy="211.843" r="4.04795" transform="rotate(-90 201.048 211.843)" fill="white"/>
<circle cx="201.048" cy="330.582" r="4.04795" transform="rotate(-90 201.048 330.582)" fill="white"/>
<circle cx="201.048" cy="93.1024" r="4.04795" transform="rotate(-90 201.048 93.1024)" fill="white"/>
<circle cx="201.048" cy="271.212" r="4.04795" transform="rotate(-90 201.048 271.212)" fill="white"/>
<circle cx="201.048" cy="33.7333" r="4.04795" transform="rotate(-90 201.048 33.7333)" fill="white"/>
<circle cx="201.048" cy="389.952" r="4.04795" transform="rotate(-90 201.048 389.952)" fill="white"/>
<circle cx="201.048" cy="152.473" r="4.04795" transform="rotate(-90 201.048 152.473)" fill="white"/>
<circle cx="179.459" cy="182.158" r="4.04795" transform="rotate(-90 179.459 182.158)" fill="white"/>
<circle cx="179.459" cy="300.897" r="4.04795" transform="rotate(-90 179.459 300.897)" fill="white"/>
<circle cx="179.459" cy="63.4179" r="4.04795" transform="rotate(-90 179.459 63.4179)" fill="white"/>
<circle cx="179.459" cy="241.527" r="4.04795" transform="rotate(-90 179.459 241.527)" fill="white"/>
<circle cx="179.459" cy="4.04776" r="4.04795" transform="rotate(-90 179.459 4.04776)" fill="white"/>
<circle cx="179.459" cy="360.267" r="4.04795" transform="rotate(-90 179.459 360.267)" fill="white"/>
<circle cx="179.459" cy="122.788" r="4.04795" transform="rotate(-90 179.459 122.788)" fill="white"/>
<circle cx="95.8014" cy="211.843" r="4.04795" transform="rotate(-90 95.8014 211.843)" fill="white"/>
<circle cx="95.8014" cy="330.582" r="4.04795" transform="rotate(-90 95.8014 330.582)" fill="white"/>
<circle cx="95.8014" cy="93.1024" r="4.04795" transform="rotate(-90 95.8014 93.1024)" fill="white"/>
<circle cx="95.8014" cy="271.212" r="4.04795" transform="rotate(-90 95.8014 271.212)" fill="white"/>
<circle cx="95.8014" cy="33.7333" r="4.04795" transform="rotate(-90 95.8014 33.7333)" fill="white"/>
<circle cx="95.8014" cy="389.952" r="4.04795" transform="rotate(-90 95.8014 389.952)" fill="white"/>
<circle cx="95.8014" cy="152.473" r="4.04795" transform="rotate(-90 95.8014 152.473)" fill="white"/>
<circle cx="74.2124" cy="182.158" r="4.04795" transform="rotate(-90 74.2124 182.158)" fill="white"/>
<circle cx="74.2124" cy="300.897" r="4.04795" transform="rotate(-90 74.2124 300.897)" fill="white"/>
<circle cx="74.2124" cy="63.4179" r="4.04795" transform="rotate(-90 74.2124 63.4179)" fill="white"/>
<circle cx="74.2124" cy="241.527" r="4.04795" transform="rotate(-90 74.2124 241.527)" fill="white"/>
<circle cx="74.2124" cy="4.04776" r="4.04795" transform="rotate(-90 74.2124 4.04776)" fill="white"/>
<circle cx="74.2124" cy="360.267" r="4.04795" transform="rotate(-90 74.2124 360.267)" fill="white"/>
<circle cx="74.2124" cy="122.788" r="4.04795" transform="rotate(-90 74.2124 122.788)" fill="white"/>
</mask>
<g mask="url(#mask0_226_313)">
<rect x="-13.4932" y="407.493" width="437.178" height="657.116" transform="rotate(-90 -13.4932 407.493)" fill="url(#paint0_radial_226_313)"/>
</g>
<defs>
<radialGradient id="paint0_radial_226_313" cx="0" cy="0" r="1" gradientUnits="userSpaceOnUse" gradientTransform="translate(205.096 736.051) rotate(90) scale(284.031 284.031)">
<stop stop-color="white" stop-opacity="0.24"/>
<stop offset="1" stop-color="white" stop-opacity="0"/>
</radialGradient>
</defs>
</svg>
