<svg width="783" height="211" viewBox="0 0 783 211" fill="none" xmlns="http://www.w3.org/2000/svg">
<path fill-rule="evenodd" clip-rule="evenodd" d="M824.525 -36.6078C869.839 -92.4386 873.307 -165.598 884.806 -234.363C896.115 -301.986 927.71 -378.595 890.985 -434.017C854.115 -489.658 766.75 -479.898 704.265 -506.82C652.664 -529.052 613.607 -578.386 555.894 -578.39C497.773 -578.393 444.655 -542.268 396.975 -506.837C352.003 -473.418 321.541 -428.131 291.24 -381.724C256.975 -329.247 209.397 -278.803 208.61 -218.355C207.798 -156.001 241.579 -97.7908 287.008 -56.6271C330.23 -17.4631 395.943 -18.6165 451.71 1.9203C514.747 25.1345 567.339 79.0751 636.183 71.9605C708.634 64.4731 778.193 20.4769 824.525 -36.6078Z" fill="#2D9BF0" fill-opacity="0.1"/>
<path fill-rule="evenodd" clip-rule="evenodd" d="M817.257 19.0483C871.954 -24.3412 891.888 -93.3335 918.25 -156.392C944.174 -218.404 990.925 -284.58 969.61 -345.386C948.211 -406.433 865.134 -416.091 813.465 -455.318C770.797 -487.713 745.933 -543.222 692.527 -555.751C638.743 -568.37 581.33 -545.46 529.109 -522.032C479.852 -499.934 441.31 -463.372 402.661 -425.708C358.956 -383.118 303.396 -345.355 288.849 -287.899C273.843 -228.632 291.795 -165.806 324.424 -116.704C355.468 -69.9864 416.542 -56.8231 463.453 -25.1408C516.48 10.672 552.816 73.5099 618.149 81.6698C686.906 90.2573 761.332 63.4121 817.257 19.0483Z" stroke="#2D9BF0" stroke-opacity="0.4"/>
<path fill-rule="evenodd" clip-rule="evenodd" d="M905.786 -34.7109C955.59 -83.3699 938.237 -163.406 936.706 -229.828C935.424 -285.476 923.563 -338.672 897.673 -386.82C873.233 -432.272 833.91 -464.904 793.078 -496.936C747.541 -532.66 706.062 -582.729 645.957 -584.289C585.39 -585.861 537.356 -532.926 482.028 -505.007C418.763 -473.083 343.741 -461.693 297.434 -408.419C245.376 -348.527 206.844 -270.874 212.971 -195.463C219.142 -119.526 279.56 -64.2253 329.931 -8.47838C379.511 46.3933 425.494 123.907 502.726 125.218C581.807 126.56 628.663 27.6222 703.655 -2.13399C769.005 -28.0637 855.46 14.4582 905.786 -34.7109Z" stroke="#2D9BF0" stroke-opacity="0.8"/>
</svg>
