<svg width="762" height="211" viewBox="0 0 762 211" fill="none" xmlns="http://www.w3.org/2000/svg">
<path fill-rule="evenodd" clip-rule="evenodd" d="M397.525 570.392C442.839 514.561 446.307 441.402 457.806 372.637C469.115 305.014 500.71 228.405 463.985 172.983C427.115 117.342 339.75 127.102 277.265 100.18C225.664 77.9482 186.607 28.6136 128.894 28.6102C70.7727 28.6069 17.655 64.7317 -30.0246 100.163C-74.9973 133.582 -105.459 178.869 -135.76 225.276C-170.025 277.752 -217.603 328.197 -218.39 388.645C-219.202 450.999 -185.421 509.209 -139.992 550.373C-96.7698 589.537 -31.0567 588.383 24.7101 608.92C87.7475 632.134 140.339 686.075 209.183 678.96C281.634 671.473 351.193 627.477 397.525 570.392Z" fill="#2D9BF0" fill-opacity="0.1"/>
<path fill-rule="evenodd" clip-rule="evenodd" d="M390.257 626.048C444.954 582.658 464.888 513.666 491.25 450.607C517.174 388.595 563.925 322.419 542.61 261.613C521.211 200.566 438.134 190.908 386.465 151.681C343.797 119.287 318.933 63.7776 265.527 51.2478C211.743 38.6296 154.33 61.5391 102.109 84.9674C52.8517 107.066 14.3097 143.627 -24.3395 181.291C-68.0443 223.881 -123.604 261.644 -138.151 319.1C-153.157 378.368 -135.205 441.193 -102.576 490.295C-71.5317 537.013 -10.4581 550.176 36.4527 581.858C89.4795 617.671 125.816 680.509 191.149 688.669C259.906 697.257 334.332 670.411 390.257 626.048Z" stroke="#2D9BF0" stroke-opacity="0.4"/>
<path fill-rule="evenodd" clip-rule="evenodd" d="M478.786 572.289C528.59 523.63 511.237 443.593 509.706 377.171C508.424 321.523 496.563 268.328 470.673 220.18C446.233 174.727 406.91 142.096 366.078 110.064C320.541 74.3399 279.062 24.27 218.957 22.7104C158.39 21.1387 110.356 74.0732 55.0285 101.992C-8.23695 133.917 -83.2595 145.306 -129.566 198.58C-181.624 258.472 -220.156 336.125 -214.029 411.537C-207.858 487.473 -147.44 542.774 -97.0694 598.521C-47.4894 653.393 -1.50579 730.906 75.7264 732.217C154.807 733.56 201.663 634.622 276.655 604.866C342.005 578.936 428.46 621.458 478.786 572.289Z" stroke="#2D9BF0" stroke-opacity="0.8"/>
</svg>
