<svg width="783" height="211" viewBox="0 0 783 211" fill="none" xmlns="http://www.w3.org/2000/svg">
<path fill-rule="evenodd" clip-rule="evenodd" d="M824.526 -36.608C869.84 -92.4388 873.307 -165.598 884.807 -234.363C896.116 -301.986 927.711 -378.595 890.986 -434.017C854.115 -489.658 766.751 -479.898 704.265 -506.82C652.665 -529.052 613.608 -578.386 555.895 -578.39C497.774 -578.393 444.656 -542.268 396.976 -506.837C352.004 -473.418 321.542 -428.131 291.241 -381.724C256.976 -329.248 209.398 -278.803 208.611 -218.355C207.799 -156.001 241.58 -97.7911 287.009 -56.6273C330.231 -17.4633 395.944 -18.6167 451.711 1.92006C514.748 25.1343 567.34 79.0748 636.184 71.9603C708.635 64.4729 778.194 20.4766 824.526 -36.608Z" fill="#9510AC" fill-opacity="0.1"/>
<path fill-rule="evenodd" clip-rule="evenodd" d="M817.258 19.048C871.955 -24.3415 891.889 -93.3338 918.25 -156.392C944.175 -218.405 990.926 -284.58 969.611 -345.386C948.212 -406.434 865.135 -416.091 813.466 -455.319C770.798 -487.713 745.934 -543.222 692.528 -555.752C638.744 -568.37 581.331 -545.46 529.11 -522.032C479.853 -499.934 441.311 -463.372 402.661 -425.708C358.957 -383.118 303.397 -345.355 288.85 -287.899C273.844 -228.632 291.796 -165.807 324.425 -116.704C355.469 -69.9867 416.543 -56.8233 463.454 -25.141C516.48 10.6718 552.817 73.5096 618.15 81.6695C686.907 90.257 761.333 63.4119 817.258 19.048Z" stroke="#9510AC" stroke-opacity="0.4"/>
<path fill-rule="evenodd" clip-rule="evenodd" d="M905.786 -34.7111C955.59 -83.3701 938.237 -163.407 936.706 -229.828C935.424 -285.477 923.563 -338.672 897.673 -386.82C873.233 -432.272 833.91 -464.904 793.078 -496.936C747.541 -532.66 706.062 -582.73 645.957 -584.289C585.39 -585.861 537.356 -532.927 482.028 -505.008C418.763 -473.083 343.741 -461.694 297.434 -408.419C245.376 -348.528 206.844 -270.874 212.971 -195.463C219.142 -119.526 279.56 -64.2256 329.931 -8.47862C379.511 46.3931 425.494 123.907 502.726 125.218C581.807 126.56 628.663 27.6219 703.655 -2.13423C769.005 -28.0639 855.46 14.458 905.786 -34.7111Z" stroke="#9510AC" stroke-opacity="0.8"/>
</svg>
