<svg width="762" height="211" viewBox="0 0 762 211" fill="none" xmlns="http://www.w3.org/2000/svg">
<path fill-rule="evenodd" clip-rule="evenodd" d="M397.526 570.392C442.84 514.561 446.307 441.402 457.807 372.637C469.116 305.014 500.711 228.405 463.986 172.983C427.115 117.342 339.751 127.102 277.265 100.18C225.665 77.9484 186.608 28.6138 128.895 28.6105C70.7737 28.6071 17.656 64.7319 -30.0236 100.163C-74.9963 133.582 -105.458 178.869 -135.759 225.276C-170.024 277.753 -217.602 328.197 -218.389 388.645C-219.201 450.999 -185.42 509.209 -139.991 550.373C-96.7688 589.537 -31.0557 588.384 24.7111 608.92C87.7484 632.135 140.34 686.075 209.184 678.961C281.635 671.473 351.194 627.477 397.526 570.392Z" fill="#9510AC" fill-opacity="0.1"/>
<path fill-rule="evenodd" clip-rule="evenodd" d="M390.258 626.048C444.955 582.658 464.889 513.666 491.25 450.607C517.175 388.595 563.926 322.419 542.611 261.613C521.212 200.566 438.135 190.909 386.466 151.681C343.798 119.287 318.934 63.7779 265.528 51.2481C211.744 38.6298 154.331 61.5393 102.11 84.9676C52.8526 107.066 14.3107 143.628 -24.3385 181.291C-68.0433 223.882 -123.603 261.645 -138.15 319.101C-153.156 378.368 -135.204 441.193 -102.575 490.296C-71.5307 537.013 -10.4571 550.176 36.4537 581.859C89.4805 617.672 125.817 680.509 191.15 688.669C259.907 697.257 334.333 670.412 390.258 626.048Z" stroke="#9510AC" stroke-opacity="0.4"/>
<path fill-rule="evenodd" clip-rule="evenodd" d="M478.786 572.289C528.59 523.63 511.237 443.593 509.706 377.171C508.424 321.523 496.563 268.328 470.673 220.18C446.233 174.727 406.91 142.096 366.078 110.064C320.541 74.3399 279.062 24.27 218.957 22.7104C158.39 21.1387 110.356 74.0732 55.0285 101.992C-8.23695 133.917 -83.2595 145.306 -129.566 198.58C-181.624 258.472 -220.156 336.125 -214.029 411.537C-207.858 487.473 -147.44 542.774 -97.0694 598.521C-47.4894 653.393 -1.50579 730.906 75.7264 732.217C154.807 733.56 201.663 634.622 276.655 604.866C342.005 578.936 428.46 621.458 478.786 572.289Z" stroke="#9510AC" stroke-opacity="0.8"/>
</svg>
